<svg width="166" height="46" viewBox="0 0 166 46" fill="none" xmlns="http://www.w3.org/2000/svg">
<rect x="-0.000976562" y="-6.10352e-05" width="166" height="46" rx="23" fill="white" fill-opacity="0.1"/>
<rect x="0.499023" y="0.499939" width="165" height="45" rx="22.5" stroke="white" stroke-opacity="0.3"/>
<g clip-path="url(#clip0)">
<path d="M33.6822 6.99994C32.2334 7.10319 30.5399 8.05868 29.5531 9.30293C28.6529 10.4317 27.9123 12.1082 28.2011 13.7374C29.7841 13.7881 31.4198 12.8099 32.3676 11.5447C33.2542 10.3669 33.9251 8.70093 33.6822 6.99994Z" fill="white"/>
<path d="M39.4071 16.3939C38.016 14.5966 36.061 13.5536 34.2147 13.5536C31.7773 13.5536 30.7463 14.7559 29.0529 14.7559C27.3068 14.7559 25.9803 13.5572 23.8724 13.5572C21.8019 13.5572 19.5973 14.8609 18.1994 17.0904C16.2342 20.2299 16.5705 26.1326 19.7552 31.1603C20.8949 32.9593 22.4168 34.9823 24.4075 34.9998C26.179 35.0173 26.6784 33.829 29.0784 33.8168C31.4784 33.8028 31.9336 35.0155 33.7018 34.9963C35.6941 34.9805 37.2992 32.7388 38.4389 30.9398C39.2559 29.6501 39.5599 29.0008 40.1935 27.5448C35.5854 25.7371 34.8466 18.9856 39.4071 16.3939Z" fill="white"/>
</g>
<path d="M60.6787 11.3622C60.6787 12.5406 60.3581 13.4423 59.7168 14.0673C59.0788 14.6891 58.1592 14.9999 56.958 14.9999H54.9805V7.86127H57.168C58.278 7.86127 59.1406 8.16888 59.7559 8.78412C60.3711 9.39935 60.6787 10.2587 60.6787 11.3622ZM59.7998 11.3915C59.7998 10.4606 59.5654 9.75905 59.0967 9.28705C58.6312 8.81504 57.9378 8.57904 57.0166 8.57904H55.8105V14.2822H56.8213C57.8109 14.2822 58.5547 14.0397 59.0527 13.5546C59.5508 13.0663 59.7998 12.3453 59.7998 11.3915ZM66.7725 12.3193C66.7725 13.1917 66.5527 13.8736 66.1133 14.3652C65.6738 14.8535 65.0667 15.0976 64.292 15.0976C63.8135 15.0976 63.3887 14.9853 63.0176 14.7607C62.6465 14.5361 62.36 14.2138 62.1582 13.7939C61.9564 13.374 61.8555 12.8824 61.8555 12.3193C61.8555 11.4469 62.0736 10.7682 62.5098 10.2831C62.946 9.79486 63.5514 9.55072 64.3262 9.55072C65.0749 9.55072 65.6689 9.79974 66.1084 10.2978C66.5511 10.7958 66.7725 11.4697 66.7725 12.3193ZM62.6953 12.3193C62.6953 13.0029 62.832 13.5237 63.1055 13.8818C63.3789 14.2398 63.7809 14.4189 64.3115 14.4189C64.8421 14.4189 65.2441 14.2415 65.5176 13.8867C65.7943 13.5286 65.9326 13.0061 65.9326 12.3193C65.9326 11.6389 65.7943 11.123 65.5176 10.7714C65.2441 10.4166 64.8389 10.2392 64.3018 10.2392C63.7712 10.2392 63.3708 10.4134 63.1006 10.7617C62.8304 11.11 62.6953 11.6292 62.6953 12.3193ZM72.5684 14.9999L71.5869 11.8603C71.5251 11.6682 71.4095 11.232 71.2402 10.5517H71.2012C71.071 11.1214 70.957 11.5608 70.8594 11.8701L69.8486 14.9999H68.9111L67.4512 9.64838H68.3008C68.6458 10.9928 68.9079 12.0165 69.0869 12.7197C69.2692 13.4228 69.3734 13.8964 69.3994 14.1406H69.4385C69.4743 13.955 69.5312 13.7158 69.6094 13.4228C69.6908 13.1266 69.7607 12.8922 69.8193 12.7197L70.8008 9.64838H71.6797L72.6367 12.7197C72.819 13.2796 72.9427 13.7499 73.0078 14.1308H73.0469C73.0599 14.0136 73.0941 13.8329 73.1494 13.5888C73.208 13.3447 73.5482 12.0312 74.1699 9.64838H75.0098L73.5303 14.9999H72.5684ZM79.6436 14.9999V11.538C79.6436 11.1018 79.5443 10.7763 79.3457 10.5615C79.1471 10.3466 78.8363 10.2392 78.4131 10.2392C77.8532 10.2392 77.443 10.3906 77.1826 10.6933C76.9222 10.996 76.792 11.4957 76.792 12.1923V14.9999H75.9814V9.64838H76.6406L76.7725 10.3808H76.8115C76.9775 10.1171 77.2103 9.91368 77.5098 9.77045C77.8092 9.62396 78.1429 9.55072 78.5107 9.55072C79.1553 9.55072 79.6403 9.70697 79.9658 10.0195C80.2913 10.3287 80.4541 10.8251 80.4541 11.5087V14.9999H79.6436ZM82.9346 14.9999H82.124V7.40228H82.9346V14.9999ZM89.2725 12.3193C89.2725 13.1917 89.0527 13.8736 88.6133 14.3652C88.1738 14.8535 87.5667 15.0976 86.792 15.0976C86.3135 15.0976 85.8887 14.9853 85.5176 14.7607C85.1465 14.5361 84.86 14.2138 84.6582 13.7939C84.4564 13.374 84.3555 12.8824 84.3555 12.3193C84.3555 11.4469 84.5736 10.7682 85.0098 10.2831C85.446 9.79486 86.0514 9.55072 86.8262 9.55072C87.5749 9.55072 88.1689 9.79974 88.6084 10.2978C89.0511 10.7958 89.2725 11.4697 89.2725 12.3193ZM85.1953 12.3193C85.1953 13.0029 85.332 13.5237 85.6055 13.8818C85.8789 14.2398 86.2809 14.4189 86.8115 14.4189C87.3421 14.4189 87.7441 14.2415 88.0176 13.8867C88.2943 13.5286 88.4326 13.0061 88.4326 12.3193C88.4326 11.6389 88.2943 11.123 88.0176 10.7714C87.7441 10.4166 87.3389 10.2392 86.8018 10.2392C86.2712 10.2392 85.8708 10.4134 85.6006 10.7617C85.3304 11.11 85.1953 11.6292 85.1953 12.3193ZM93.9893 14.9999L93.8281 14.2382H93.7891C93.5221 14.5735 93.2552 14.8014 92.9883 14.9218C92.7246 15.039 92.3942 15.0976 91.9971 15.0976C91.4665 15.0976 91.0498 14.9609 90.7471 14.6874C90.4476 14.414 90.2979 14.025 90.2979 13.5204C90.2979 12.4397 91.1621 11.8733 92.8906 11.8212L93.7988 11.7919V11.4599C93.7988 11.04 93.7077 10.7307 93.5254 10.5322C93.3464 10.3303 93.0583 10.2294 92.6611 10.2294C92.2152 10.2294 91.7106 10.3661 91.1475 10.6396L90.8984 10.0195C91.1621 9.87624 91.4502 9.76394 91.7627 9.68256C92.0785 9.60118 92.3942 9.56049 92.71 9.56049C93.348 9.56049 93.82 9.70209 94.126 9.98529C94.4352 10.2685 94.5898 10.7226 94.5898 11.3476V14.9999H93.9893ZM92.1582 14.4286C92.6628 14.4286 93.0583 14.2903 93.3447 14.0136C93.6344 13.7369 93.7793 13.3495 93.7793 12.8515V12.3681L92.9688 12.4023C92.3242 12.4251 91.8587 12.526 91.5723 12.705C91.2891 12.8808 91.1475 13.1559 91.1475 13.5302C91.1475 13.8232 91.2354 14.0462 91.4111 14.1992C91.5902 14.3522 91.8392 14.4286 92.1582 14.4286ZM99.9072 14.2822H99.8633C99.4889 14.8258 98.929 15.0976 98.1836 15.0976C97.4837 15.0976 96.9385 14.8583 96.5479 14.3798C96.1605 13.9013 95.9668 13.221 95.9668 12.3388C95.9668 11.4566 96.1621 10.7714 96.5527 10.2831C96.9434 9.79486 97.487 9.55072 98.1836 9.55072C98.9095 9.55072 99.4661 9.81439 99.8535 10.3417H99.917L99.8828 9.95599L99.8633 9.58002V7.40228H100.674V14.9999H100.015L99.9072 14.2822ZM98.2861 14.4189C98.8395 14.4189 99.2399 14.2691 99.4873 13.9697C99.738 13.6669 99.8633 13.1803 99.8633 12.5097V12.3388C99.8633 11.5803 99.7363 11.04 99.4824 10.7177C99.2318 10.3922 98.8298 10.2294 98.2764 10.2294C97.8011 10.2294 97.4365 10.415 97.1826 10.7861C96.932 11.1539 96.8066 11.6747 96.8066 12.3486C96.8066 13.0322 96.932 13.5481 97.1826 13.8964C97.4333 14.2447 97.8011 14.4189 98.2861 14.4189ZM109.614 12.3193C109.614 13.1917 109.395 13.8736 108.955 14.3652C108.516 14.8535 107.909 15.0976 107.134 15.0976C106.655 15.0976 106.23 14.9853 105.859 14.7607C105.488 14.5361 105.202 14.2138 105 13.7939C104.798 13.374 104.697 12.8824 104.697 12.3193C104.697 11.4469 104.915 10.7682 105.352 10.2831C105.788 9.79486 106.393 9.55072 107.168 9.55072C107.917 9.55072 108.511 9.79974 108.95 10.2978C109.393 10.7958 109.614 11.4697 109.614 12.3193ZM105.537 12.3193C105.537 13.0029 105.674 13.5237 105.947 13.8818C106.221 14.2398 106.623 14.4189 107.153 14.4189C107.684 14.4189 108.086 14.2415 108.359 13.8867C108.636 13.5286 108.774 13.0061 108.774 12.3193C108.774 11.6389 108.636 11.123 108.359 10.7714C108.086 10.4166 107.681 10.2392 107.144 10.2392C106.613 10.2392 106.213 10.4134 105.942 10.7617C105.672 11.11 105.537 11.6292 105.537 12.3193ZM114.702 14.9999V11.538C114.702 11.1018 114.603 10.7763 114.404 10.5615C114.206 10.3466 113.895 10.2392 113.472 10.2392C112.912 10.2392 112.502 10.3906 112.241 10.6933C111.981 10.996 111.851 11.4957 111.851 12.1923V14.9999H111.04V9.64838H111.699L111.831 10.3808H111.87C112.036 10.1171 112.269 9.91368 112.568 9.77045C112.868 9.62396 113.201 9.55072 113.569 9.55072C114.214 9.55072 114.699 9.70697 115.024 10.0195C115.35 10.3287 115.513 10.8251 115.513 11.5087V14.9999H114.702ZM121.509 14.4286C121.652 14.4286 121.79 14.4189 121.924 14.3994C122.057 14.3766 122.163 14.3538 122.241 14.331V14.9511C122.153 14.9934 122.023 15.0276 121.851 15.0536C121.681 15.0829 121.528 15.0976 121.392 15.0976C120.356 15.0976 119.839 14.5523 119.839 13.4619V10.2783H119.072V9.88763L119.839 9.55072L120.181 8.40814H120.649V9.64838H122.202V10.2783H120.649V13.4277C120.649 13.7499 120.726 13.9973 120.879 14.1699C121.032 14.3424 121.242 14.4286 121.509 14.4286ZM126.978 14.9999V11.538C126.978 11.1018 126.878 10.7763 126.68 10.5615C126.481 10.3466 126.17 10.2392 125.747 10.2392C125.184 10.2392 124.772 10.3922 124.512 10.6982C124.255 11.0042 124.126 11.5055 124.126 12.2021V14.9999H123.315V7.40228H124.126V9.70209C124.126 9.97878 124.113 10.2083 124.087 10.3906H124.136C124.295 10.1334 124.521 9.93158 124.814 9.7851C125.111 9.63536 125.448 9.56049 125.825 9.56049C126.479 9.56049 126.969 9.71674 127.295 10.0292C127.624 10.3385 127.788 10.8316 127.788 11.5087V14.9999H126.978ZM131.719 15.0976C130.928 15.0976 130.303 14.8567 129.844 14.3749C129.388 13.8932 129.16 13.2242 129.16 12.3681C129.16 11.5055 129.372 10.8203 129.795 10.3124C130.221 9.80463 130.793 9.55072 131.509 9.55072C132.179 9.55072 132.71 9.77207 133.101 10.2148C133.491 10.6542 133.687 11.2353 133.687 11.9579V12.4706H130C130.016 13.0989 130.174 13.5758 130.474 13.9013C130.776 14.2268 131.201 14.3896 131.748 14.3896C132.324 14.3896 132.894 14.2691 133.457 14.0283V14.7509C133.171 14.8746 132.899 14.9625 132.642 15.0146C132.388 15.0699 132.08 15.0976 131.719 15.0976ZM131.499 10.2294C131.069 10.2294 130.726 10.3694 130.469 10.6494C130.215 10.9293 130.065 11.3167 130.02 11.8115H132.817C132.817 11.3004 132.703 10.9098 132.476 10.6396C132.248 10.3661 131.922 10.2294 131.499 10.2294Z" fill="white"/>
<path d="M62.5928 35.9999L61.4521 32.8281H57.085L55.9678 35.9999H53.999L58.2725 24.5312H60.3037L64.5771 35.9999H62.5928ZM60.96 31.2187L59.8896 28.1093C59.8115 27.901 59.7021 27.5729 59.5615 27.1249C59.4261 26.677 59.3324 26.3489 59.2803 26.1406C59.1396 26.7812 58.9339 27.4817 58.6631 28.2421L57.6318 31.2187H60.96ZM70.2725 36.1562C69.1787 36.1562 68.3298 35.763 67.7256 34.9765H67.6162C67.6891 35.7057 67.7256 36.1484 67.7256 36.3046V39.8437H65.8896V27.3593H67.374C67.4157 27.5208 67.5016 27.9062 67.6318 28.5156H67.7256C68.2985 27.6406 69.1579 27.2031 70.3037 27.2031C71.3818 27.2031 72.2204 27.5937 72.8193 28.3749C73.4235 29.1562 73.7256 30.2525 73.7256 31.664C73.7256 33.0755 73.4183 34.177 72.8037 34.9687C72.1943 35.7604 71.3506 36.1562 70.2725 36.1562ZM69.8271 28.7031C69.098 28.7031 68.5641 28.9166 68.2256 29.3437C67.8923 29.7708 67.7256 30.4531 67.7256 31.3906V31.664C67.7256 32.7161 67.8923 33.4791 68.2256 33.9531C68.5589 34.4218 69.1032 34.6562 69.8584 34.6562C70.4938 34.6562 70.9834 34.3958 71.3271 33.8749C71.6709 33.3541 71.8428 32.6119 71.8428 31.6484C71.8428 30.6796 71.6709 29.9479 71.3271 29.4531C70.9886 28.9531 70.4886 28.7031 69.8271 28.7031ZM80.2412 36.1562C79.1475 36.1562 78.2985 35.763 77.6943 34.9765H77.585C77.6579 35.7057 77.6943 36.1484 77.6943 36.3046V39.8437H75.8584V27.3593H77.3428C77.3844 27.5208 77.4704 27.9062 77.6006 28.5156H77.6943C78.2673 27.6406 79.1266 27.2031 80.2725 27.2031C81.3506 27.2031 82.1891 27.5937 82.7881 28.3749C83.3923 29.1562 83.6943 30.2525 83.6943 31.664C83.6943 33.0755 83.387 34.177 82.7725 34.9687C82.1631 35.7604 81.3193 36.1562 80.2412 36.1562ZM79.7959 28.7031C79.0667 28.7031 78.5329 28.9166 78.1943 29.3437C77.861 29.7708 77.6943 30.4531 77.6943 31.3906V31.664C77.6943 32.7161 77.861 33.4791 78.1943 33.9531C78.5277 34.4218 79.0719 34.6562 79.8271 34.6562C80.4626 34.6562 80.9521 34.3958 81.2959 33.8749C81.6396 33.3541 81.8115 32.6119 81.8115 31.6484C81.8115 30.6796 81.6396 29.9479 81.2959 29.4531C80.9574 28.9531 80.4574 28.7031 79.7959 28.7031ZM96.7646 32.8984C96.7646 33.914 96.3975 34.7109 95.6631 35.289C94.9287 35.8671 93.9157 36.1562 92.624 36.1562C91.3324 36.1562 90.2751 35.9557 89.4521 35.5546V33.789C89.973 34.0338 90.5251 34.2265 91.1084 34.3671C91.6969 34.5078 92.2438 34.5781 92.749 34.5781C93.4886 34.5781 94.0329 34.4374 94.3818 34.1562C94.736 33.8749 94.9131 33.4973 94.9131 33.0234C94.9131 32.5963 94.7516 32.2343 94.4287 31.9374C94.1058 31.6406 93.4391 31.289 92.4287 30.8828C91.387 30.4609 90.6527 29.9791 90.2256 29.4374C89.7985 28.8958 89.585 28.2447 89.585 27.4843C89.585 26.5312 89.9235 25.7812 90.6006 25.2343C91.2777 24.6874 92.1865 24.414 93.3271 24.414C94.4209 24.414 95.5094 24.6536 96.5928 25.1328L95.999 26.6562C94.9834 26.2291 94.0771 26.0156 93.2803 26.0156C92.6761 26.0156 92.2178 26.1484 91.9053 26.414C91.5928 26.6744 91.4365 27.0208 91.4365 27.4531C91.4365 27.7499 91.499 28.0051 91.624 28.2187C91.749 28.427 91.9548 28.6249 92.2412 28.8124C92.5277 28.9999 93.0433 29.2473 93.7881 29.5546C94.6266 29.9036 95.2412 30.2291 95.6318 30.5312C96.0225 30.8333 96.3089 31.1744 96.4912 31.5546C96.6735 31.9348 96.7646 32.3828 96.7646 32.8984ZM101.999 34.6718C102.447 34.6718 102.895 34.6015 103.343 34.4609V35.8437C103.14 35.9322 102.877 36.0051 102.554 36.0624C102.236 36.1249 101.905 36.1562 101.562 36.1562C99.8219 36.1562 98.9521 35.2395 98.9521 33.4062V28.7499H97.7725V27.9374L99.0381 27.2656L99.6631 25.4374H100.796V27.3593H103.257V28.7499H100.796V33.3749C100.796 33.8176 100.905 34.1458 101.124 34.3593C101.348 34.5676 101.64 34.6718 101.999 34.6718ZM112.741 31.664C112.741 33.0755 112.379 34.177 111.655 34.9687C110.931 35.7604 109.924 36.1562 108.632 36.1562C107.825 36.1562 107.111 35.9739 106.491 35.6093C105.871 35.2447 105.395 34.7213 105.062 34.039C104.728 33.3567 104.562 32.565 104.562 31.664C104.562 30.263 104.921 29.1692 105.64 28.3828C106.358 27.5963 107.371 27.2031 108.679 27.2031C109.929 27.2031 110.918 27.6067 111.647 28.414C112.377 29.2161 112.741 30.2994 112.741 31.664ZM106.452 31.664C106.452 33.6588 107.189 34.6562 108.663 34.6562C110.121 34.6562 110.851 33.6588 110.851 31.664C110.851 29.69 110.116 28.7031 108.647 28.7031C107.877 28.7031 107.317 28.9583 106.968 29.4687C106.624 29.9791 106.452 30.7109 106.452 31.664ZM119.241 27.2031C119.611 27.2031 119.916 27.2291 120.155 27.2812L119.976 28.9921C119.715 28.9296 119.444 28.8984 119.163 28.8984C118.429 28.8984 117.832 29.138 117.374 29.6171C116.921 30.0963 116.694 30.7187 116.694 31.4843V35.9999H114.858V27.3593H116.296L116.538 28.8828H116.632C116.918 28.3671 117.291 27.9583 117.749 27.6562C118.213 27.3541 118.71 27.2031 119.241 27.2031ZM125.538 36.1562C124.194 36.1562 123.142 35.7656 122.382 34.9843C121.627 34.1979 121.249 33.1171 121.249 31.7421C121.249 30.3307 121.601 29.2213 122.304 28.414C123.007 27.6067 123.973 27.2031 125.202 27.2031C126.343 27.2031 127.244 27.5494 127.905 28.2421C128.567 28.9348 128.897 29.888 128.897 31.1015V32.0937H123.14C123.166 32.9322 123.392 33.5781 123.819 34.0312C124.246 34.4791 124.848 34.7031 125.624 34.7031C126.134 34.7031 126.608 34.6562 127.046 34.5624C127.489 34.4635 127.963 34.302 128.468 34.0781V35.5703C128.02 35.7838 127.567 35.9348 127.108 36.0234C126.65 36.1119 126.127 36.1562 125.538 36.1562ZM125.202 28.5937C124.619 28.5937 124.15 28.7786 123.796 29.1484C123.447 29.5182 123.239 30.0572 123.171 30.7656H127.093C127.082 30.052 126.91 29.513 126.577 29.1484C126.244 28.7786 125.785 28.5937 125.202 28.5937Z" fill="white"/>
<defs>
<clipPath id="clip0">
<rect width="27.1765" height="28" fill="white" transform="translate(14.999 6.99994)"/>
</clipPath>
</defs>
</svg>
