<svg width="36" height="36" viewBox="0 0 36 36" fill="none" xmlns="http://www.w3.org/2000/svg">
<g clip-path="url(#clip0)">
<path d="M28.0297 18.9368C28.2322 20.8595 27.9711 22.8491 27.1709 24.7285V24.7292L29.9485 28.3165C30.1971 28.6377 30.6632 28.6817 30.971 28.4169C33.4652 26.2705 35.1155 23.1723 35.3601 19.6859C35.3885 19.2801 35.062 18.9368 34.6551 18.9368H28.0297V18.9368Z" fill="#171730"/>
<path d="M21.0557 0.706525V9.47825C23.4088 10.4966 25.3623 12.27 26.6095 14.4904H34.6733C35.0721 14.4904 35.3947 14.1603 35.3793 13.7619C35.0923 6.30509 29.147 0.373961 21.7918 0.000930513C21.3906 -0.0194089 21.0557 0.304751 21.0557 0.706525Z" fill="#171730"/>
<path d="M16.5621 31.8354C10.1419 31.9018 4.83638 26.6966 4.78447 20.2763C4.73214 13.8058 9.98105 8.52478 16.4397 8.52478V5.08466C16.4397 4.68211 16.1036 4.36007 15.7015 4.3785C7.30804 4.7641 0.620188 11.6912 0.620117 20.1805C0.620117 28.9342 7.79005 36.056 16.5436 35.9997C19.8447 35.9785 22.9048 34.9466 25.431 33.1981C25.7634 32.9681 25.8333 32.5052 25.5858 32.1855L23.4793 29.4646C21.552 30.9289 19.1577 31.8086 16.5621 31.8354Z" fill="#171730"/>
<path d="M6.90332 20.1804C6.90332 25.439 11.1817 29.7174 16.4402 29.7174C21.6983 29.7174 25.9772 25.4399 25.9772 20.1804C25.9772 14.922 21.6983 10.6435 16.4402 10.6435C11.1817 10.6435 6.90332 14.9219 6.90332 20.1804ZM17.4996 13.8449V14.8555C18.5856 14.8555 19.547 15.3174 20.2249 16.0405C20.6247 16.4671 20.6028 17.138 20.1762 17.5377C19.7523 17.9349 19.0846 17.9197 18.679 17.489C18.3753 17.1656 17.9615 16.9777 17.5427 16.9742C16.6855 16.9742 16.106 16.9742 15.2524 16.9742C14.6586 16.9742 14.1789 17.4552 14.1789 18.0476C14.1789 18.6395 14.6605 19.1211 15.2531 19.1211H17.6281C19.3881 19.1211 20.8203 20.5533 20.8203 22.3133C20.8203 23.9578 19.5554 25.5061 17.4996 25.5061V26.516C17.4996 27.1008 17.0257 27.5754 16.4402 27.5754C15.8555 27.5754 15.3809 27.1008 15.3809 26.516V25.5061C14.6347 25.5061 13.8995 25.4253 13.0383 24.8281C12.5581 24.4948 12.4388 23.8345 12.7721 23.3542C13.1054 22.8733 13.7658 22.7539 14.246 23.0873C14.5002 23.2653 14.816 23.3833 15.1302 23.3874H17.6281C18.218 23.3874 18.7016 22.9112 18.7016 22.3133C18.7016 21.7214 18.2199 21.2398 17.6281 21.2398C16.5771 21.2398 16.3605 21.2398 15.2531 21.2398C13.4924 21.2398 12.0602 19.8076 12.0602 18.0476C12.0602 16.3979 13.3297 14.8555 15.3809 14.8555V13.8449C15.3809 13.2601 15.8555 12.7855 16.4402 12.7855C17.0257 12.7855 17.4996 13.2601 17.4996 13.8449Z" fill="#171730"/>
</g>
<defs>
<clipPath id="clip0">
<rect width="36" height="36" fill="white"/>
</clipPath>
</defs>
</svg>
