<svg width="36" height="36" viewBox="0 0 36 36" fill="none" xmlns="http://www.w3.org/2000/svg">
<path d="M18 0C8.07519 0 0 8.07519 0 18C0 27.9248 8.07519 36 18 36C27.9248 36 36 27.9248 36 18C36 8.07519 27.9248 0 18 0ZM28.0601 13.2632L16.5564 24.6767C15.8797 25.3534 14.797 25.3985 14.0752 24.7218L7.98496 19.1729C7.26316 18.4962 7.21804 17.3684 7.84962 16.6466C8.52632 15.9248 9.65414 15.8797 10.3759 16.5564L15.203 20.9774L25.4887 10.6917C26.2105 9.96992 27.3383 9.96992 28.0601 10.6917C28.782 11.4135 28.782 12.5414 28.0601 13.2632Z" fill="#171730"/>
</svg>
