<svg width="51" height="51" viewBox="0 0 51 51" fill="none" xmlns="http://www.w3.org/2000/svg">
<g clip-path="url(#clip0)">
<path d="M38.1554 15.6814C36.6314 15.0705 36.1911 14.7011 36.1911 14.0339C36.1911 13.5001 36.5955 12.8764 37.7355 12.8764C38.7439 12.8764 39.5172 13.274 39.5241 13.2774C39.6055 13.3208 39.6968 13.344 39.7872 13.344C40.0078 13.344 40.203 13.2104 40.284 13.0037L40.561 12.2956C40.6574 12.0376 40.5111 11.8128 40.3245 11.7322C39.7037 11.4619 38.4903 11.2528 38.4779 11.2506C38.4584 11.2472 38.3904 11.2326 38.3904 11.1531L38.3865 10.126C38.3865 9.81661 38.1282 9.56477 37.8111 9.56477H37.3142C36.9974 9.56477 36.7392 9.81647 36.7392 10.1261L36.7405 11.206C36.7405 11.2888 36.6508 11.3248 36.618 11.3324C35.0864 11.6972 34.1292 12.8191 34.1292 14.2343C34.1292 15.9985 35.5875 16.7957 37.1621 17.3941C38.4209 17.8883 38.9343 18.3894 38.9343 19.1244C38.9343 19.9242 38.2071 20.4827 37.1653 20.4827C36.2756 20.4827 35.0716 19.9188 35.0597 19.9131C34.9827 19.8766 34.901 19.8582 34.8171 19.8582C34.5879 19.8582 34.3884 19.9967 34.3086 20.2114L34.0441 20.9275C33.9501 21.1949 34.0949 21.4119 34.2802 21.5085C35.0196 21.8936 36.4504 22.1193 36.5141 22.1292C36.5312 22.1316 36.6183 22.1623 36.6183 22.2419V23.3171C36.6183 23.6264 36.8766 23.8783 37.1939 23.8783H37.7073C38.0247 23.8783 38.283 23.6266 38.283 23.3171V22.1855C38.283 22.0797 38.3611 22.0704 38.3772 22.0665C40.0088 21.7 41.0139 20.5062 41.0139 19.0072C41.0135 17.4676 40.1585 16.4727 38.1554 15.6814Z" fill="#171730"/>
<path d="M37.5142 3.23557C30.0659 3.23557 24.0283 9.27356 24.0283 16.7214C24.0283 24.1694 30.0659 30.2075 37.5142 30.2075C44.9621 30.2075 50.9998 24.1694 50.9998 16.7214C50.9998 9.27356 44.9621 3.23557 37.5142 3.23557ZM37.5142 27.0821C31.792 27.0821 27.1536 22.4433 27.1536 16.7215C27.1536 10.9998 31.792 6.36115 37.5142 6.36115C43.2361 6.36115 47.8743 10.9998 47.8743 16.7215C47.8743 22.4433 43.2361 27.0821 37.5142 27.0821Z" fill="#171730"/>
<path d="M48.2596 36.7426C45.3919 38.3253 41.4477 39.7888 37.5143 40.4057C34.0146 40.9546 27.4309 39.631 27.4309 38.0677C27.4309 37.4754 33.2051 39.5273 36.6979 38.5954C39.3763 37.8809 38.9961 35.3754 37.5393 35.0449C36.0909 34.7162 27.6054 31.6076 23.9808 31.5003C22.2734 31.4499 18.0581 32.0941 16.0184 32.4263C15.3197 32.54 14.8815 32.5275 14.8378 33.1962C14.6349 36.304 14.2348 42.6592 14.0168 45.9789C14.0122 46.049 14.1096 46.9923 14.888 46.3284C15.74 45.602 16.9349 44.7967 18.0402 45.0474C19.7742 45.4408 34.7755 48.1891 36.8447 47.7081C39.8048 47.02 48.1844 42.0541 49.791 40.5105C52.2813 38.1176 50.3455 35.5913 48.2596 36.7426Z" fill="#171730"/>
<path d="M10.6984 32.3052L2.83958 31.9179C2.23283 31.888 1.61315 32.3453 1.46236 32.9336L0.0333941 45.9072C-0.11725 46.4957 0.256198 46.9965 0.863232 47.02L9.57271 47.0191C10.1799 47.0425 10.7143 46.5662 10.7609 45.9604L11.7174 33.4607C11.7637 32.8551 11.3051 32.3351 10.6984 32.3052ZM6.07182 45.3004C4.87169 45.3004 3.89897 44.3275 3.89897 43.1275C3.89897 41.9274 4.87184 40.9547 6.07182 40.9547C7.2718 40.9547 8.24466 41.9275 8.24466 43.1275C8.24466 44.3276 7.27194 45.3004 6.07182 45.3004Z" fill="#171730"/>
</g>
<defs>
<clipPath id="clip0">
<rect width="51" height="51" fill="white"/>
</clipPath>
</defs>
</svg>
