<svg width="17" height="16" viewBox="0 0 17 16" fill="none" xmlns="http://www.w3.org/2000/svg">
<g opacity="0.8" clip-path="url(#clip0)">
<path d="M8.64295 6.44439V9.5555H13.0314C12.3908 11.3662 10.6658 12.6666 8.64295 12.6666C6.07719 12.6666 3.98921 10.5728 3.98921 7.99995C3.98921 5.42706 6.07719 3.33328 8.64295 3.33328C9.7552 3.33328 10.8256 3.73306 11.657 4.4595L13.6954 2.11372C12.2992 0.894168 10.506 0.222168 8.64295 0.222168C4.36616 0.222168 0.886719 3.71128 0.886719 7.99995C0.886719 12.2886 4.36616 15.7777 8.64295 15.7777C12.9197 15.7777 16.3992 12.2886 16.3992 7.99995V6.44439H8.64295Z" fill="white"/>
</g>
<defs>
<clipPath id="clip0">
<rect width="16.8421" height="16" fill="white"/>
</clipPath>
</defs>
</svg>
