<svg width="40" height="36" viewBox="0 0 40 36" fill="none" xmlns="http://www.w3.org/2000/svg">
<path d="M30.9739 36H8.3371C9.52487 33.9429 11.2157 32.2813 13.202 31.1351C15.1898 29.9873 17.4746 29.3534 19.8486 29.3534H27.1798C29.9862 29.3534 31.7401 26.3163 30.337 23.8869L22.6996 10.6584C21.2979 8.22899 17.79 8.22899 16.3868 10.6584L8.74944 23.8869C8.71405 23.9485 8.6802 24.01 8.64943 24.0715L2.86906 34.083C0.0688805 31.6874 -0.99119 27.4656 1.09664 23.8484L12.5281 4.05026C15.6453 -1.35009 23.4396 -1.35009 26.5583 4.05026L37.9882 23.8484C41.1069 29.2488 37.2097 36 30.9739 36Z" fill="url(#paint0_linear)"/>
<path d="M22.1746 23.6176H16.9128C16.2989 23.6176 15.9158 22.953 16.2219 22.4206L18.8529 17.8634C19.1606 17.3311 19.9268 17.3311 20.2345 17.8634L22.8654 22.4206C23.1732 22.9514 22.7885 23.6176 22.1746 23.6176Z" fill="url(#paint1_linear)"/>
<defs>
<linearGradient id="paint0_linear" x1="-4.23463" y1="17.9998" x2="45.0024" y2="17.9998" gradientUnits="userSpaceOnUse">
<stop offset="0.0903" stop-color="#009FE3"/>
<stop offset="0.9984" stop-color="#E6007E"/>
</linearGradient>
<linearGradient id="paint1_linear" x1="6.93577" y1="20.5403" x2="24.4733" y2="20.5403" gradientUnits="userSpaceOnUse">
<stop offset="0.423" stop-color="#009FE3"/>
<stop offset="0.9984" stop-color="#E6007E"/>
</linearGradient>
</defs>
</svg>
