<svg width="68" height="80" viewBox="0 0 68 80" fill="none" xmlns="http://www.w3.org/2000/svg">
<path d="M22.1591 76.6354H21.1393V77.5054C21.1393 77.6793 21.0777 77.8266 20.9546 77.9497C20.8314 78.0728 20.6842 78.1317 20.5129 78.1317H20.5049V71.7719H22.1591C22.4937 71.7719 22.8095 71.8361 23.104 71.9619C23.3984 72.0877 23.6554 72.2617 23.8775 72.4865C24.0997 72.7087 24.2764 72.9683 24.4022 73.2601C24.5307 73.5545 24.5949 73.8677 24.5949 74.205C24.5949 74.5396 24.5307 74.8554 24.4022 75.1499C24.2737 75.4443 24.0997 75.7013 23.8775 75.9234C23.6554 76.1456 23.3957 76.3196 23.104 76.4481C22.8069 76.5712 22.4937 76.6354 22.1591 76.6354ZM21.1393 75.9984H22.1591C22.408 75.9984 22.6409 75.9529 22.8577 75.8592C23.0745 75.7655 23.2646 75.637 23.4279 75.4737C23.5911 75.3105 23.7223 75.1177 23.816 74.9009C23.9097 74.6841 23.9578 74.4512 23.9578 74.205C23.9578 73.9587 23.9097 73.7258 23.816 73.509C23.7223 73.2922 23.5911 73.1022 23.4279 72.9389C23.2646 72.7756 23.0719 72.6445 22.8577 72.5508C22.6409 72.4571 22.408 72.4089 22.1591 72.4089H21.1393V75.9984Z" fill="white"/>
<path d="M27.5277 73.4905C27.857 73.4905 28.1675 73.552 28.4566 73.6779C28.7456 73.8037 28.9999 73.975 29.2194 74.1945C29.6638 74.6388 29.8966 75.1982 29.918 75.8674V78.1265H29.91C29.7387 78.1265 29.5942 78.0676 29.4764 77.9499C29.3586 77.8321 29.2944 77.6849 29.2837 77.5082C29.2623 77.5323 29.2408 77.5564 29.2194 77.5778C28.9999 77.7973 28.7456 77.9686 28.4566 78.0944C28.1675 78.2202 27.857 78.2818 27.5277 78.2818C27.1958 78.2818 26.8853 78.2202 26.5962 78.0944C26.3072 77.9686 26.0529 77.7973 25.8334 77.5778C25.6166 77.3583 25.4453 77.104 25.3221 76.815C25.1963 76.5259 25.1348 76.2154 25.1348 75.8861C25.1348 75.5542 25.1963 75.2437 25.3221 74.9546C25.4479 74.6655 25.6166 74.4113 25.8334 74.1971C26.0529 73.9776 26.3072 73.8063 26.5962 73.6805C26.8853 73.552 27.1958 73.4905 27.5277 73.4905ZM29.2837 75.8995V75.8727C29.2676 75.3802 29.099 74.968 28.7724 74.6441C28.6118 74.4835 28.4244 74.3551 28.2103 74.2641C27.9962 74.173 27.7686 74.1275 27.5304 74.1275C27.2868 74.1275 27.0566 74.173 26.8452 74.2641C26.631 74.3551 26.4464 74.4809 26.2884 74.6441C26.1278 74.8047 25.9993 74.9921 25.9083 75.2036C25.8173 75.415 25.7718 75.6426 25.7718 75.8861C25.7718 76.1297 25.8173 76.3572 25.9083 76.5687C25.9993 76.7802 26.1251 76.9675 26.2884 77.1281C26.4464 77.2887 26.6337 77.4172 26.8452 77.5082C27.0593 77.5992 27.2868 77.6447 27.5304 77.6447C27.7713 77.6447 27.9988 77.5992 28.2103 77.5082C28.4244 77.4172 28.6118 77.2914 28.7724 77.1281C29.099 76.8016 29.2676 76.392 29.2837 75.8995Z" fill="white"/>
<path d="M31.1899 74.0203L32.5844 77.3715L32.8681 76.6997L33.9843 74.0203C34.1101 73.7633 34.3002 73.6375 34.5598 73.6375H34.8302L32.9592 78.1317L32.4693 79.3014C32.3435 79.561 32.1535 79.6895 31.8938 79.6895H31.6235L32.2418 78.1986L31.6395 76.7452L30.3467 73.6375H30.617C30.874 73.6348 31.0667 73.7633 31.1899 74.0203Z" fill="white"/>
<path d="M35.4901 77.7464C35.3616 78.0033 35.1689 78.1292 34.9146 78.1292H34.6416L35.5704 75.8994L37.0694 72.3019C37.1979 72.0423 37.3906 71.9138 37.6502 71.9138H37.9795L39.5427 75.6719L40.5625 78.1318H40.2921C40.0325 78.1318 39.8398 78.0033 39.7166 77.749L39.2536 76.6382H35.9532L35.8113 76.9755L35.4901 77.7464ZM36.2155 75.9985H38.9859L37.6021 72.6713L36.2155 75.9985Z" fill="white"/>
<path d="M41.7486 72.1546C41.8396 72.2456 41.8851 72.3553 41.8851 72.4838C41.8851 72.6123 41.8396 72.722 41.7486 72.813C41.6576 72.9041 41.5479 72.9496 41.4194 72.9496C41.2909 72.9496 41.1812 72.9041 41.0928 72.813C41.0018 72.722 40.959 72.6123 40.959 72.4838C40.959 72.3553 41.0045 72.2456 41.0928 72.1546C41.1838 72.0636 41.2909 72.0181 41.4194 72.0181C41.5479 72.0181 41.6576 72.0636 41.7486 72.1546ZM41.1035 73.6402H41.7379V77.5026C41.7379 77.6766 41.6763 77.8238 41.5559 77.947C41.4328 78.0701 41.2855 78.129 41.1116 78.129H41.1035V73.6402Z" fill="white"/>
<path d="M47.4943 72.6444V78.129H47.4863C47.3123 78.129 47.1651 78.0674 47.042 77.9443C46.9188 77.8212 46.8599 77.674 46.8599 77.5026V77.4652C46.8251 77.5053 46.7903 77.5428 46.7555 77.5803C46.5361 77.7971 46.2818 77.9684 45.9927 78.0915C45.7036 78.2173 45.3931 78.2789 45.0612 78.2789C44.732 78.2789 44.4215 78.2173 44.1324 78.0915C43.8433 77.9657 43.589 77.7971 43.3695 77.5803C43.15 77.3608 42.9787 77.1065 42.8556 76.8174C42.7325 76.5283 42.6709 76.2178 42.6709 75.8859C42.6709 75.5567 42.7325 75.2462 42.8556 74.9571C42.9787 74.668 43.15 74.4137 43.3695 74.1942C43.589 73.9747 43.8433 73.8034 44.1324 73.6803C44.4215 73.5572 44.732 73.4956 45.0612 73.4956C45.3931 73.4956 45.7036 73.5572 45.9927 73.6803C46.2818 73.8034 46.5361 73.9747 46.7555 74.1942C46.793 74.2317 46.8278 74.2665 46.8599 74.304V72.0181H46.868C47.0393 72.0181 47.1865 72.0796 47.3096 72.2001C47.4328 72.3232 47.4943 72.4704 47.4943 72.6444ZM45.0558 74.13C44.8149 74.13 44.5874 74.1755 44.376 74.2665C44.1618 74.3575 43.9744 74.4833 43.8138 74.6412C43.6559 74.8018 43.5301 74.9892 43.4391 75.2033C43.3481 75.4175 43.3026 75.645 43.3026 75.8832C43.3026 76.1268 43.3481 76.3543 43.4391 76.5685C43.5301 76.7826 43.6559 76.9673 43.8138 77.1252C43.9744 77.2858 44.1618 77.4143 44.376 77.5053C44.5901 77.5963 44.8176 77.6418 45.0558 77.6418C45.2994 77.6418 45.5269 77.5963 45.7411 77.5053C45.9552 77.4143 46.1399 77.2885 46.2978 77.1252C46.4584 76.9673 46.5869 76.7799 46.6779 76.5685C46.7689 76.3543 46.8144 76.1268 46.8144 75.8832C46.8144 75.6423 46.7689 75.4148 46.6779 75.2033C46.5869 74.9919 46.4611 74.8018 46.2978 74.6412C46.1399 74.4833 45.9525 74.3575 45.7411 74.2665C45.5296 74.1755 45.2994 74.13 45.0558 74.13Z" fill="white"/>
<path d="M53.8869 62.6311H14.5045C16.5709 59.0523 19.5126 56.1614 22.9683 54.1673C26.4266 52.1705 30.4015 51.0677 34.5316 51.0677H47.2862C52.1685 51.0677 55.2199 45.7838 52.7788 41.5573L39.4916 18.5429C37.0531 14.3164 30.9502 14.3164 28.509 18.5429L15.2218 41.5573C15.1603 41.6644 15.1014 41.7714 15.0479 41.8785L4.99145 59.2959C0.119835 55.1282 -1.72442 47.7833 1.90787 41.4904L21.7958 7.04644C27.2189 -2.34881 40.7791 -2.34881 46.2048 7.04644L66.0901 41.4904C71.5158 50.8856 64.7357 62.6311 53.8869 62.6311Z" fill="url(#paint0_linear)"/>
<path d="M38.5777 41.0888H29.4234C28.3553 41.0888 27.6889 39.9325 28.2215 39.0063L32.7987 31.0779C33.334 30.1518 34.667 30.1518 35.2024 31.0779L39.7796 39.0063C40.3149 39.9298 39.6457 41.0888 38.5777 41.0888Z" fill="url(#paint1_linear)"/>
<defs>
<linearGradient id="paint0_linear" x1="-7.3672" y1="31.3153" x2="78.293" y2="31.3153" gradientUnits="userSpaceOnUse">
<stop offset="0.0903" stop-color="#009FE3"/>
<stop offset="0.9984" stop-color="#E6007E"/>
</linearGradient>
<linearGradient id="paint1_linear" x1="12.0659" y1="35.7351" x2="42.5768" y2="35.7351" gradientUnits="userSpaceOnUse">
<stop offset="0.423" stop-color="#009FE3"/>
<stop offset="0.9984" stop-color="#E6007E"/>
</linearGradient>
</defs>
</svg>
