<svg width="48" height="48" viewBox="0 0 48 48" fill="none" xmlns="http://www.w3.org/2000/svg">
<rect width="48" height="48" rx="12" fill="url(#paint0_linear)"/>
<g opacity="0.8">
<path d="M33.0235 17.4375C31.2138 17.4375 29.7422 18.9091 29.7422 20.7188C29.7422 22.5284 31.2138 24 33.0235 24C34.8331 24 36.3047 22.5284 36.3047 20.7188C36.3047 18.9091 34.8331 17.4375 33.0235 17.4375Z" fill="white"/>
<path d="M28.1016 10.8749C26.2919 10.8749 24.8203 12.3465 24.8203 14.1562C24.8203 15.9659 26.2919 17.4375 28.1016 17.4375C29.9112 17.4375 31.3828 15.9659 31.3828 14.1562C31.3828 12.3465 29.9112 10.8749 28.1016 10.8749Z" fill="white"/>
<path d="M23.1797 17.4375C21.37 17.4375 19.8984 18.9091 19.8984 20.7188C19.8984 22.5284 21.37 24 23.1797 24C24.9894 24 26.461 22.5284 26.461 20.7188C26.461 18.9091 24.9894 17.4375 23.1797 17.4375Z" fill="white"/>
<path d="M12.4609 25.6406H10.8203C10.3669 25.6406 10 26.0075 10 26.4609V36.3047C10 36.7581 10.3669 37.125 10.8203 37.125H12.4609C13.818 37.125 14.9219 36.0211 14.9219 34.6641V28.1016C14.9219 26.7446 13.818 25.6406 12.4609 25.6406ZM12.4609 30.5625C12.0079 30.5625 11.6406 30.1952 11.6406 29.7422C11.6406 29.2892 12.0079 28.9219 12.4609 28.9219C12.914 28.9219 13.2813 29.2892 13.2813 29.7422C13.2813 30.1952 12.914 30.5625 12.4609 30.5625Z" fill="white"/>
<path d="M37.3245 25.9554C36.6486 25.462 35.7203 25.5621 35.1586 26.163L30.6715 31.6817C30.3704 32.0054 29.7746 32.2032 29.4715 32.2032C27.7026 32.2032 29.993 32.2032 24.7322 32.2032C24.4198 32.2032 24.1387 32.3762 23.9993 32.6558C23.7951 33.0652 23.2978 33.224 22.8994 33.0235C22.494 32.8216 22.329 32.329 22.5317 31.9236C22.9498 31.084 23.7934 30.5625 24.7322 30.5625C26.4072 30.5625 27.2521 30.5625 28.9219 30.5625C29.828 30.5625 30.5626 29.828 30.5626 28.9219C30.5626 28.0158 29.828 27.2813 28.9219 27.2813H26.461C25.8624 27.2813 25.8234 27.1692 25.3322 26.7374C23.3322 24.9776 18.7045 25.7843 16.5625 27.2813V35.4844C17.4895 35.8354 20.173 37.1251 21.1666 37.1251H28.9219C30.464 37.1251 31.9356 36.3889 32.8593 35.1552L37.6725 28.265C38.2199 27.5377 38.0658 26.4964 37.3245 25.9554Z" fill="white"/>
</g>
<defs>
<linearGradient id="paint0_linear" x1="0" y1="0" x2="48" y2="48" gradientUnits="userSpaceOnUse">
<stop stop-color="#BEFA95"/>
<stop offset="1" stop-color="#6FBE56"/>
</linearGradient>
</defs>
</svg>
