<svg width="28" height="28" viewBox="0 0 28 28" fill="none" xmlns="http://www.w3.org/2000/svg">
<g opacity="0.4" clip-path="url(#clip0)">
<path d="M20.2406 -6.10352e-05H7.75741C6.71741 -6.10352e-05 5.86621 0.850339 5.86621 1.89114V26.1079C5.86621 27.1487 6.71741 27.9999 7.75741 27.9999H20.2406C21.2806 27.9999 22.1318 27.1503 22.1318 26.1087V1.89114C22.1318 0.850339 21.2806 -6.10352e-05 20.2406 -6.10352e-05ZM12.0022 1.36314H15.9958C16.1222 1.36314 16.2246 1.46554 16.2246 1.59274C16.2246 1.71914 16.1222 1.82154 15.9958 1.82154H12.0022C11.8758 1.82154 11.7734 1.71914 11.7734 1.59274C11.7734 1.46554 11.8758 1.36314 12.0022 1.36314ZM13.999 27.0543C13.4766 27.0543 13.0534 26.6311 13.0534 26.1079C13.0534 25.5847 13.4766 25.1623 13.999 25.1623C14.5214 25.1623 14.9446 25.5847 14.9446 26.1079C14.9446 26.6311 14.5214 27.0543 13.999 27.0543ZM20.8158 24.4999H7.18221V2.99914H20.8158V24.4999Z" fill="white"/>
</g>
<defs>
<clipPath id="clip0">
<rect width="28" height="28" fill="white" transform="translate(-0.000976562)"/>
</clipPath>
</defs>
</svg>
