<svg width="166" height="46" viewBox="0 0 166 46" fill="none" xmlns="http://www.w3.org/2000/svg">
<rect x="-0.000976562" y="-6.10352e-05" width="166" height="46" rx="23" fill="white" fill-opacity="0.1"/>
<rect x="0.499023" y="0.499939" width="165" height="45" rx="22.5" stroke="white" stroke-opacity="0.3"/>
<g clip-path="url(#clip0)">
<path d="M37.295 18.6044C34.1379 16.7851 29.0708 13.8637 21.2112 9.32961C20.6813 8.96905 20.0717 8.9218 19.5449 9.1055L33.0297 22.9989L37.295 18.6044Z" fill="#32BBFF"/>
<path d="M19.5448 9.10553C19.4461 9.13998 19.35 9.18155 19.2582 9.23175C18.6765 9.55594 18.249 10.1798 18.249 10.9687V35.0291C18.249 35.8181 18.6764 36.4419 19.2582 36.766C19.3499 36.8162 19.4459 36.8579 19.5445 36.8926L33.0296 22.9989L19.5448 9.10553Z" fill="#32BBFF"/>
<path d="M33.03 22.9989L19.5449 36.8926C20.0718 37.0776 20.6815 37.034 21.2116 36.6682C28.8336 32.2708 33.8436 29.384 37.0372 27.5492C37.1261 27.4978 37.2132 27.4475 37.2993 27.3976L33.03 22.9989Z" fill="#32BBFF"/>
<path d="M18.249 22.9989V35.0291C18.249 35.8181 18.6764 36.4419 19.2582 36.766C19.3499 36.8162 19.4459 36.8579 19.5445 36.8926L33.0296 22.9989H18.249Z" fill="#2C9FD9"/>
<path d="M21.2108 9.32959C20.5816 8.9015 19.8395 8.91369 19.2578 9.23175L32.8246 23.2097L37.2945 18.6043C34.1375 16.785 29.0703 13.8637 21.2108 9.32959Z" fill="#29CC5E"/>
<path d="M32.8247 22.7881L19.2578 36.766C19.8396 37.084 20.5816 37.1023 21.2108 36.6681C28.8329 32.2707 33.8429 29.384 37.0365 27.5492C37.1254 27.4977 37.2125 27.4474 37.2986 27.3976L32.8247 22.7881Z" fill="#D93F21"/>
<path d="M42.9253 22.9989C42.9253 22.3322 42.5988 21.6595 41.9517 21.2864C41.9517 21.2864 40.7415 20.5907 37.0322 18.4531L32.6201 22.9989L37.0365 27.5491C40.7051 25.4269 41.9516 24.7113 41.9516 24.7113C42.5988 24.3383 42.9253 23.6655 42.9253 22.9989Z" fill="#FFD500"/>
<path d="M41.9517 24.7114C42.5988 24.3383 42.9253 23.6655 42.9253 22.9989H32.6201L37.0365 27.5492C40.7052 25.427 41.9517 24.7114 41.9517 24.7114Z" fill="#FFAA00"/>
</g>
<path d="M58.1201 11.2597H60.5469V14.7314C60.1693 14.8518 59.7852 14.943 59.3945 15.0048C59.0039 15.0667 58.5514 15.0976 58.0371 15.0976C56.9564 15.0976 56.1149 14.777 55.5127 14.1357C54.9105 13.4911 54.6094 12.5895 54.6094 11.4306C54.6094 10.6884 54.7575 10.039 55.0537 9.48236C55.3532 8.92247 55.7829 8.49603 56.3428 8.20306C56.9027 7.90684 57.5586 7.75873 58.3105 7.75873C59.0723 7.75873 59.7819 7.8987 60.4395 8.17865L60.1172 8.91107C59.4727 8.63763 58.8525 8.50092 58.2568 8.50092C57.3877 8.50092 56.709 8.7597 56.2207 9.27728C55.7324 9.79486 55.4883 10.5126 55.4883 11.4306C55.4883 12.3941 55.7227 13.1249 56.1914 13.623C56.6634 14.121 57.3551 14.3701 58.2666 14.3701C58.7614 14.3701 59.2448 14.3131 59.7168 14.1992V12.0019H58.1201V11.2597ZM66.2451 14.9999H62.2656V7.86127H66.2451V8.59857H63.0957V10.8984H66.0547V11.6308H63.0957V14.2578H66.2451V14.9999ZM70.0293 14.9999H69.1992V8.59857H66.9385V7.86127H72.29V8.59857H70.0293V14.9999ZM75.9668 14.9999V7.86127H76.7969V14.9999H75.9668ZM80.957 14.9999H80.127V8.59857H77.8662V7.86127H83.2178V8.59857H80.957V14.9999ZM93.0908 11.4208C93.0908 12.5634 92.8011 13.4619 92.2217 14.1161C91.6455 14.7704 90.8431 15.0976 89.8145 15.0976C88.763 15.0976 87.9508 14.777 87.3779 14.1357C86.8083 13.4911 86.5234 12.5829 86.5234 11.4111C86.5234 10.249 86.8099 9.3489 87.3828 8.71088C87.9557 8.0696 88.7695 7.74896 89.8242 7.74896C90.8496 7.74896 91.6504 8.07448 92.2266 8.72552C92.8027 9.37657 93.0908 10.275 93.0908 11.4208ZM87.4023 11.4208C87.4023 12.3876 87.6074 13.1217 88.0176 13.623C88.431 14.121 89.0299 14.3701 89.8145 14.3701C90.6055 14.3701 91.2028 14.121 91.6064 13.623C92.0101 13.1249 92.2119 12.3909 92.2119 11.4208C92.2119 10.4606 92.0101 9.73301 91.6064 9.23822C91.2061 8.74017 90.612 8.49115 89.8242 8.49115C89.0332 8.49115 88.431 8.7418 88.0176 9.2431C87.6074 9.74115 87.4023 10.4671 87.4023 11.4208ZM100.264 14.9999H99.3164L95.415 9.00873H95.376C95.4281 9.71185 95.4541 10.3564 95.4541 10.9423V14.9999H94.6875V7.86127H95.625L99.5166 13.8281H99.5557C99.5492 13.7402 99.5345 13.4586 99.5117 12.9833C99.4889 12.5048 99.4808 12.163 99.4873 11.9579V7.86127H100.264V14.9999Z" fill="white"/>
<path d="M60.1787 29.8046H64.3818V35.539C63.6943 35.763 63.0329 35.9218 62.3975 36.0156C61.7673 36.1093 61.085 36.1562 60.3506 36.1562C58.6214 36.1562 57.2881 35.6458 56.3506 34.6249C55.4131 33.5989 54.9443 32.1536 54.9443 30.289C54.9443 28.4505 55.473 27.013 56.5303 25.9765C57.5876 24.9348 59.0433 24.414 60.8975 24.414C62.0902 24.414 63.2204 24.6432 64.2881 25.1015L63.6318 26.6562C62.7048 26.2291 61.7777 26.0156 60.8506 26.0156C59.6318 26.0156 58.6683 26.3984 57.96 27.164C57.2516 27.9296 56.8975 28.9765 56.8975 30.3046C56.8975 31.7005 57.2152 32.763 57.8506 33.4921C58.4912 34.2161 59.4105 34.5781 60.6084 34.5781C61.2126 34.5781 61.8584 34.5025 62.5459 34.3515V31.4062H60.1787V29.8046ZM74.6006 31.664C74.6006 33.0755 74.2386 34.177 73.5146 34.9687C72.7907 35.7604 71.7829 36.1562 70.4912 36.1562C69.6839 36.1562 68.9704 35.9739 68.3506 35.6093C67.7308 35.2447 67.2542 34.7213 66.9209 34.039C66.5876 33.3567 66.4209 32.565 66.4209 31.664C66.4209 30.263 66.7803 29.1692 67.499 28.3828C68.2178 27.5963 69.2308 27.2031 70.5381 27.2031C71.7881 27.2031 72.7777 27.6067 73.5068 28.414C74.236 29.2161 74.6006 30.2994 74.6006 31.664ZM68.3115 31.664C68.3115 33.6588 69.0485 34.6562 70.5225 34.6562C71.9808 34.6562 72.71 33.6588 72.71 31.664C72.71 29.69 71.9756 28.7031 70.5068 28.7031C69.736 28.7031 69.1761 28.9583 68.8271 29.4687C68.4834 29.9791 68.3115 30.7109 68.3115 31.664ZM84.3818 31.664C84.3818 33.0755 84.0199 34.177 83.2959 34.9687C82.5719 35.7604 81.5641 36.1562 80.2725 36.1562C79.4652 36.1562 78.7516 35.9739 78.1318 35.6093C77.512 35.2447 77.0355 34.7213 76.7021 34.039C76.3688 33.3567 76.2021 32.565 76.2021 31.664C76.2021 30.263 76.5615 29.1692 77.2803 28.3828C77.999 27.5963 79.012 27.2031 80.3193 27.2031C81.5693 27.2031 82.5589 27.6067 83.2881 28.414C84.0173 29.2161 84.3818 30.2994 84.3818 31.664ZM78.0928 31.664C78.0928 33.6588 78.8298 34.6562 80.3037 34.6562C81.762 34.6562 82.4912 33.6588 82.4912 31.664C82.4912 29.69 81.7568 28.7031 80.2881 28.7031C79.5173 28.7031 78.9574 28.9583 78.6084 29.4687C78.2646 29.9791 78.0928 30.7109 78.0928 31.664ZM93.7959 27.3593V28.3671L92.3193 28.6406C92.4548 28.8229 92.5667 29.0468 92.6553 29.3124C92.7438 29.5781 92.7881 29.8593 92.7881 30.1562C92.7881 31.0468 92.4808 31.7473 91.8662 32.2578C91.2516 32.7682 90.4053 33.0234 89.3271 33.0234C89.0511 33.0234 88.8011 33.0025 88.5771 32.9609C88.1813 33.2057 87.9834 33.4921 87.9834 33.8203C87.9834 34.0182 88.0745 34.1666 88.2568 34.2656C88.4443 34.3645 88.7855 34.414 89.2803 34.414H90.7881C91.7412 34.414 92.4652 34.6171 92.96 35.0234C93.4548 35.4296 93.7021 36.0156 93.7021 36.7812C93.7021 37.7604 93.2985 38.5156 92.4912 39.0468C91.6839 39.5781 90.5173 39.8437 88.9912 39.8437C87.8141 39.8437 86.9157 39.6354 86.2959 39.2187C85.6761 38.802 85.3662 38.2083 85.3662 37.4374C85.3662 36.9062 85.5329 36.4583 85.8662 36.0937C86.2048 35.7343 86.6761 35.4843 87.2803 35.3437C87.0355 35.2395 86.8324 35.0729 86.6709 34.8437C86.5146 34.6093 86.4365 34.3645 86.4365 34.1093C86.4365 33.7864 86.5277 33.513 86.71 33.289C86.8923 33.065 87.1631 32.8437 87.5225 32.6249C87.0745 32.4322 86.71 32.1197 86.4287 31.6874C86.1527 31.2499 86.0146 30.7395 86.0146 30.1562C86.0146 29.2187 86.3089 28.4921 86.8975 27.9765C87.4912 27.4609 88.335 27.2031 89.4287 27.2031C89.6735 27.2031 89.9287 27.2213 90.1943 27.2578C90.4652 27.289 90.6683 27.3229 90.8037 27.3593H93.7959ZM87.0068 37.3437C87.0068 37.7395 87.1839 38.0442 87.5381 38.2578C87.8975 38.4713 88.4001 38.5781 89.0459 38.5781C90.0459 38.5781 90.7907 38.4348 91.2803 38.1484C91.7699 37.8619 92.0146 37.4817 92.0146 37.0078C92.0146 36.6328 91.8792 36.3645 91.6084 36.2031C91.3428 36.0468 90.8454 35.9687 90.1162 35.9687H88.7256C88.1995 35.9687 87.7803 36.0911 87.4678 36.3359C87.1605 36.5859 87.0068 36.9218 87.0068 37.3437ZM87.7959 30.1562C87.7959 30.6979 87.9339 31.1145 88.21 31.4062C88.4912 31.6979 88.8923 31.8437 89.4131 31.8437C90.4756 31.8437 91.0068 31.276 91.0068 30.1406C91.0068 29.5781 90.874 29.1458 90.6084 28.8437C90.348 28.5364 89.9495 28.3828 89.4131 28.3828C88.8818 28.3828 88.4782 28.5338 88.2021 28.8359C87.9313 29.138 87.7959 29.5781 87.7959 30.1562ZM97.2412 35.9999H95.4053V23.8437H97.2412V35.9999ZM103.647 36.1562C102.304 36.1562 101.252 35.7656 100.491 34.9843C99.736 34.1979 99.3584 33.1171 99.3584 31.7421C99.3584 30.3307 99.71 29.2213 100.413 28.414C101.116 27.6067 102.082 27.2031 103.312 27.2031C104.452 27.2031 105.353 27.5494 106.015 28.2421C106.676 28.9348 107.007 29.888 107.007 31.1015V32.0937H101.249C101.275 32.9322 101.502 33.5781 101.929 34.0312C102.356 34.4791 102.957 34.7031 103.733 34.7031C104.244 34.7031 104.718 34.6562 105.155 34.5624C105.598 34.4635 106.072 34.302 106.577 34.0781V35.5703C106.129 35.7838 105.676 35.9348 105.218 36.0234C104.759 36.1119 104.236 36.1562 103.647 36.1562ZM103.312 28.5937C102.728 28.5937 102.259 28.7786 101.905 29.1484C101.556 29.5182 101.348 30.0572 101.28 30.7656H105.202C105.192 30.052 105.02 29.513 104.687 29.1484C104.353 28.7786 103.895 28.5937 103.312 28.5937ZM121.007 28.0312C121.007 29.2239 120.616 30.138 119.835 30.7734C119.054 31.4088 117.942 31.7265 116.499 31.7265H115.312V35.9999H113.444V24.5781H116.733C118.16 24.5781 119.228 24.8697 119.937 25.4531C120.65 26.0364 121.007 26.8958 121.007 28.0312ZM115.312 30.1562H116.304C117.262 30.1562 117.965 29.9895 118.413 29.6562C118.861 29.3229 119.085 28.802 119.085 28.0937C119.085 27.4374 118.884 26.9479 118.483 26.6249C118.082 26.302 117.457 26.1406 116.608 26.1406H115.312V30.1562ZM124.929 35.9999H123.093V23.8437H124.929V35.9999ZM132.968 35.9999L132.601 34.7968H132.538C132.121 35.3229 131.702 35.6822 131.28 35.8749C130.858 36.0624 130.317 36.1562 129.655 36.1562C128.806 36.1562 128.142 35.927 127.663 35.4687C127.189 35.0104 126.952 34.3619 126.952 33.5234C126.952 32.6328 127.283 31.9609 127.944 31.5078C128.606 31.0546 129.614 30.8072 130.968 30.7656L132.46 30.7187V30.2578C132.46 29.7057 132.33 29.2942 132.069 29.0234C131.814 28.7473 131.416 28.6093 130.874 28.6093C130.431 28.6093 130.007 28.6744 129.601 28.8046C129.194 28.9348 128.804 29.0885 128.429 29.2656L127.835 27.9531C128.304 27.7083 128.817 27.5234 129.374 27.3984C129.931 27.2682 130.457 27.2031 130.952 27.2031C132.051 27.2031 132.879 27.4426 133.437 27.9218C133.999 28.401 134.28 29.1536 134.28 30.1796V35.9999H132.968ZM130.233 34.7499C130.9 34.7499 131.434 34.565 131.835 34.1953C132.241 33.8203 132.444 33.2968 132.444 32.6249V31.8749L131.335 31.9218C130.47 31.9531 129.84 32.0989 129.444 32.3593C129.054 32.6145 128.858 33.0078 128.858 33.539C128.858 33.9244 128.973 34.2239 129.202 34.4374C129.431 34.6458 129.775 34.7499 130.233 34.7499ZM135.53 27.3593H137.53L139.288 32.2578C139.554 32.9557 139.731 33.6119 139.819 34.2265H139.882C139.929 33.94 140.015 33.5937 140.14 33.1874C140.265 32.776 140.926 30.8333 142.124 27.3593H144.108L140.413 37.1484C139.741 38.9453 138.621 39.8437 137.054 39.8437C136.647 39.8437 136.252 39.7994 135.866 39.7109V38.2578C136.142 38.3203 136.457 38.3515 136.812 38.3515C137.697 38.3515 138.319 37.8385 138.679 36.8124L138.999 35.9999L135.53 27.3593Z" fill="white"/>
<defs>
<clipPath id="clip0">
<rect width="27.1765" height="28" fill="white" transform="translate(16.999 8.99994)"/>
</clipPath>
</defs>
</svg>
