<svg width="28" height="28" viewBox="0 0 28 28" fill="none" xmlns="http://www.w3.org/2000/svg">
<g clip-path="url(#clip0)">
<path d="M27.9732 8.23208C27.9076 6.74433 27.667 5.72152 27.3224 4.83523C26.9668 3.89447 26.4199 3.0522 25.7032 2.35202C25.003 1.64095 24.1552 1.08841 23.2254 0.738425C22.3339 0.393784 21.3165 0.153198 19.8287 0.0876025C18.3299 0.0164522 17.854 0 14.0525 0C10.251 0 9.77517 0.0164522 8.28187 0.0820473C6.79413 0.147642 5.77131 0.388443 4.88525 0.73287C3.94427 1.08841 3.102 1.63539 2.40182 2.35202C1.69075 3.0522 1.13843 3.90002 0.788229 4.82989C0.443588 5.72152 0.203002 6.73877 0.137407 8.22652C0.0662568 9.72538 0.0498047 10.2012 0.0498047 14.0027C0.0498047 17.8043 0.0662568 18.2801 0.131852 19.7734C0.197447 21.2611 0.438247 22.284 0.782888 23.1702C1.13843 24.111 1.69075 24.9533 2.40182 25.6534C3.102 26.3645 3.94982 26.9171 4.87969 27.267C5.77131 27.6117 6.78857 27.8523 8.27653 27.9179C9.76962 27.9837 10.2457 27.9999 14.0472 27.9999C17.8487 27.9999 18.3245 27.9837 19.8178 27.9179C21.3056 27.8523 22.3284 27.6117 23.2145 27.267C25.0962 26.5395 26.5839 25.0518 27.3115 23.1702C27.6559 22.2786 27.8967 21.2611 27.9623 19.7734C28.0279 18.2801 28.0443 17.8043 28.0443 14.0027C28.0443 10.2012 28.0388 9.72538 27.9732 8.23208ZM25.4517 19.664C25.3915 21.0315 25.1618 21.7699 24.9704 22.2622C24.4999 23.482 23.5317 24.4501 22.3119 24.9206C21.8197 25.112 21.0759 25.3417 19.7138 25.4018C18.2369 25.4676 17.794 25.4838 14.0581 25.4838C10.3222 25.4838 9.87367 25.4676 8.40216 25.4018C7.03471 25.3417 6.29629 25.112 5.804 24.9206C5.19698 24.6962 4.64445 24.3407 4.19596 23.8758C3.73103 23.4217 3.37549 22.8747 3.15115 22.2677C2.9597 21.7754 2.73001 21.0315 2.66997 19.6696C2.60416 18.1927 2.58793 17.7496 2.58793 14.0136C2.58793 10.2777 2.60416 9.82922 2.66997 8.35793C2.73001 6.99047 2.9597 6.25205 3.15115 5.75976C3.37549 5.15253 3.73103 4.6002 4.20152 4.15151C4.65534 3.68657 5.20232 3.33103 5.80956 3.1069C6.30184 2.91546 7.04582 2.68577 8.40772 2.62551C9.88457 2.55992 10.3277 2.54347 14.0634 2.54347C17.8049 2.54347 18.2478 2.55992 19.7193 2.62551C21.0868 2.68577 21.8252 2.91546 22.3175 3.1069C22.9245 3.33103 23.4771 3.68657 23.9255 4.15151C24.3905 4.60554 24.746 5.15253 24.9704 5.75976C25.1618 6.25205 25.3915 6.99581 25.4517 8.35793C25.5173 9.83478 25.5338 10.2777 25.5338 14.0136C25.5338 17.7496 25.5173 18.1871 25.4517 19.664Z" fill="#171730"/>
<path d="M14.0522 6.80957C10.0812 6.80957 6.85938 10.0312 6.85938 14.0024C6.85938 17.9736 10.0812 21.1952 14.0522 21.1952C18.0234 21.1952 21.245 17.9736 21.245 14.0024C21.245 10.0312 18.0234 6.80957 14.0522 6.80957ZM14.0522 18.6682C11.476 18.6682 9.38639 16.5788 9.38639 14.0024C9.38639 11.426 11.476 9.33658 14.0522 9.33658C16.6286 9.33658 18.718 11.426 18.718 14.0024C18.718 16.5788 16.6286 18.6682 14.0522 18.6682Z" fill="#171730"/>
<path d="M23.2092 6.52539C23.2092 7.45269 22.4573 8.20458 21.5298 8.20458C20.6025 8.20458 19.8506 7.45269 19.8506 6.52539C19.8506 5.59787 20.6025 4.84619 21.5298 4.84619C22.4573 4.84619 23.2092 5.59787 23.2092 6.52539Z" fill="#171730"/>
</g>
<defs>
<clipPath id="clip0">
<rect width="28" height="28" fill="white"/>
</clipPath>
</defs>
</svg>
