<svg width="48" height="48" viewBox="0 0 48 48" fill="none" xmlns="http://www.w3.org/2000/svg">
<rect width="48" height="48" rx="12" fill="url(#paint0_linear)"/>
<g opacity="0.8" clip-path="url(#clip0)">
<path d="M29.4688 16.7803L22.9062 11.8584C22.3435 11.4457 21.5938 11.8666 21.5938 12.5147V14.9757H19.0234C14.0523 14.9757 10 19.028 10 23.9991C10 28.6749 13.5766 32.5304 18.1376 32.9733L15.7915 31.2178C15.3548 30.8906 15.3559 30.2319 15.7915 29.9053L18.2852 28.035C16.3656 27.6905 14.9219 26.017 14.9219 23.9991C14.9219 21.7351 16.7594 19.8976 19.0234 19.8976H21.5938V22.3585C21.5938 23.0061 22.3432 23.4278 22.9062 23.0147L29.4688 18.0928C29.9063 17.79 29.9072 17.084 29.4688 16.7803Z" fill="white"/>
<path d="M29.8629 15.0249L32.209 16.7804C32.6456 17.1078 32.6446 17.7664 32.209 18.0929L29.7153 19.9632C31.6347 20.3078 33.0785 21.9811 33.0785 23.9992C33.0785 26.2632 31.241 28.1007 28.977 28.1007H26.516V25.6398C26.516 24.9938 25.7676 24.5698 25.2035 24.9835L18.5317 29.9054C18.0941 30.2084 18.0932 30.9144 18.5317 31.2179L25.2035 36.1397C25.723 36.5439 26.516 36.1641 26.516 35.4835V33.0226H28.977C33.9481 33.0226 38.0004 28.9702 38.0004 23.9992C38.0004 19.3233 34.4238 15.4679 29.8629 15.0249Z" fill="white"/>
</g>
<defs>
<linearGradient id="paint0_linear" x1="0" y1="0" x2="48" y2="48" gradientUnits="userSpaceOnUse">
<stop stop-color="#B384EF"/>
<stop offset="1" stop-color="#5A3CA6"/>
</linearGradient>
<clipPath id="clip0">
<rect width="28" height="28" fill="white" transform="translate(10 10)"/>
</clipPath>
</defs>
</svg>
