<svg width="17" height="14" viewBox="0 0 17 14" fill="none" xmlns="http://www.w3.org/2000/svg">
<path d="M15.3093 0.00112135C10.5048 2.94633 7.04182 6.66597 5.63581 8.31903L2.02573 5.4909C1.93013 5.42216 -0.0516015 7.18155 0.00102988 7.23633L6.57566 13.9205C6.62399 13.9753 6.69059 14 6.76256 14C6.77544 14 6.79585 14 6.81304 13.9957C6.89897 13.9764 6.97201 13.9184 7.00423 13.8324C8.0633 11.1246 11.5606 5.45545 16.0268 1.34376C16.1062 1.26857 16.1342 1.15042 16.0901 1.04838C16.0891 1.0473 15.3758 -0.0396948 15.3093 0.00112135Z" fill="url(#paint0_linear)"/>
<defs>
<linearGradient id="paint0_linear" x1="0.582324" y1="14" x2="16.8137" y2="11.3293" gradientUnits="userSpaceOnUse">
<stop stop-color="#BE1C91"/>
<stop offset="1" stop-color="#8B40A6"/>
</linearGradient>
</defs>
</svg>
