<svg width="31" height="26" viewBox="0 0 31 26" fill="none" xmlns="http://www.w3.org/2000/svg">
<g opacity="0.8" clip-path="url(#clip0)">
<path d="M30.9474 3.46372C29.7965 3.9405 28.5702 4.25653 27.2917 4.40998C28.607 3.66831 29.6108 2.50285 30.0828 1.09807C28.8565 1.78858 27.5025 2.27633 26.0596 2.54851C24.8952 1.37757 23.2357 0.652344 21.4252 0.652344C17.9127 0.652344 15.0849 3.34498 15.0849 6.64592C15.0849 7.12088 15.1275 7.57757 15.2319 8.01234C9.95732 7.76938 5.29007 5.38181 2.15471 1.74474C1.60733 2.64168 1.28625 3.66831 1.28625 4.7735C1.28625 6.84869 2.41776 8.68824 4.10439 9.75323C3.08507 9.73497 2.08508 9.45547 1.23789 9.01522C1.23789 9.03349 1.23789 9.05724 1.23789 9.08099C1.23789 11.9928 3.43709 14.4115 6.321 14.9686C5.80457 15.102 5.24171 15.1659 4.65758 15.1659C4.25139 15.1659 3.84134 15.144 3.45643 15.0636C4.27847 17.4366 6.61113 19.1811 9.38479 19.2377C7.22621 20.8325 4.48543 21.7934 1.51836 21.7934C0.998053 21.7934 0.499026 21.7714 0 21.7112C2.81041 23.4228 6.14112 24.4001 9.73295 24.4001C21.4078 24.4001 27.7907 15.2664 27.7907 7.34922C27.7907 7.08435 27.7811 6.8286 27.7675 6.57468C29.0267 5.73072 30.0847 4.67668 30.9474 3.46372Z" fill="#171730"/>
</g>
<defs>
<clipPath id="clip0">
<rect width="30.9474" height="25.0526" fill="white"/>
</clipPath>
</defs>
</svg>
