<svg width="19" height="16" viewBox="0 0 19 16" fill="none" xmlns="http://www.w3.org/2000/svg">
<g opacity="0.8" clip-path="url(#clip0)">
<path d="M18.3678 2.82147C17.7102 3.09391 17.0094 3.2745 16.2789 3.36219C17.0304 2.93838 17.6041 2.2724 17.8738 1.46967C17.173 1.86425 16.3993 2.14296 15.5748 2.29849C14.9094 1.62938 13.9611 1.21497 12.9266 1.21497C10.9194 1.21497 9.30354 2.75362 9.30354 4.63987C9.30354 4.91127 9.32786 5.17224 9.38754 5.42068C6.37349 5.28184 3.70649 3.91752 1.91486 1.83919C1.60207 2.35173 1.41859 2.93838 1.41859 3.56991C1.41859 4.75574 2.06517 5.8069 3.02896 6.41547C2.44649 6.40504 1.87507 6.24533 1.39096 5.99376C1.39096 6.00419 1.39096 6.01776 1.39096 6.03133C1.39096 7.69525 2.64765 9.07732 4.29559 9.39569C4.00049 9.4719 3.67886 9.50843 3.34507 9.50843C3.11296 9.50843 2.87865 9.4959 2.6587 9.44997C3.12844 10.8059 4.46138 11.8028 6.04633 11.8352C4.81286 12.7465 3.2467 13.2956 1.55123 13.2956C1.25391 13.2956 0.968752 13.283 0.683594 13.2486C2.28954 14.2267 4.1928 14.7851 6.24528 14.7851C12.9166 14.7851 16.564 9.56584 16.564 5.04175C16.564 4.8904 16.5585 4.74426 16.5508 4.59916C17.2703 4.1169 17.8749 3.51459 18.3678 2.82147Z" fill="white"/>
</g>
<defs>
<clipPath id="clip0">
<rect width="17.6842" height="14.3158" fill="white" transform="translate(0.683594 0.842163)"/>
</clipPath>
</defs>
</svg>
