<svg width="48" height="48" viewBox="0 0 48 48" fill="none" xmlns="http://www.w3.org/2000/svg">
<rect width="48" height="48" rx="12" fill="url(#paint0_linear)"/>
<g clip-path="url(#clip0)">
<path d="M24.1979 23.0573C26.1361 23.0573 27.8144 22.3622 29.1857 20.9906C30.557 19.6193 31.2522 17.9415 31.2522 16.003C31.2522 14.0653 30.557 12.3872 29.1855 11.0154C27.814 9.64431 26.1358 8.94916 24.1979 8.94916C22.2594 8.94916 20.5816 9.64431 19.2102 11.0156C17.8389 12.3869 17.1436 14.065 17.1436 16.003C17.1436 17.9415 17.8389 19.6196 19.2105 20.9909C20.582 22.362 22.2601 23.0573 24.1979 23.0573Z" fill="white" fill-opacity="0.8"/>
<path d="M36.541 31.4702C36.5014 30.8995 36.4214 30.277 36.3037 29.6196C36.1848 28.9573 36.0317 28.3312 35.8485 27.7589C35.6592 27.1675 35.4018 26.5834 35.0836 26.0236C34.7534 25.4427 34.3655 24.9368 33.9302 24.5205C33.475 24.085 32.9177 23.7348 32.2733 23.4794C31.6311 23.2254 30.9194 23.0967 30.1581 23.0967C29.8591 23.0967 29.57 23.2193 29.0116 23.5829C28.6679 23.807 28.2659 24.0662 27.8173 24.3529C27.4336 24.5973 26.9138 24.8264 26.2719 25.0337C25.6455 25.2364 25.0096 25.3392 24.3819 25.3392C23.7543 25.3392 23.1186 25.2364 22.4916 25.0337C21.8503 24.8266 21.3305 24.5976 20.9473 24.3531C20.5028 24.0691 20.1006 23.8099 19.7518 23.5827C19.1941 23.2191 18.9047 23.0964 18.6058 23.0964C17.8442 23.0964 17.1328 23.2254 16.4908 23.4797C15.8468 23.7346 15.2893 24.0848 14.8337 24.5207C14.3986 24.9372 14.0105 25.4429 13.6807 26.0236C13.3627 26.5834 13.1053 27.1672 12.9158 27.7592C12.7328 28.3314 12.5798 28.9573 12.4609 29.6196C12.3431 30.2761 12.2631 30.8989 12.2236 31.4709C12.1847 32.0313 12.165 32.6129 12.165 33.2004C12.165 34.7292 12.651 35.9669 13.6094 36.8797C14.556 37.7804 15.8084 38.2374 17.3314 38.2374H31.4338C32.9568 38.2374 34.2088 37.7807 35.1556 36.8797C36.1142 35.9676 36.6002 34.7297 36.6002 33.2002C36.6 32.61 36.5801 32.028 36.541 31.4702Z" fill="white" fill-opacity="0.8"/>
</g>
<defs>
<linearGradient id="paint0_linear" x1="0" y1="0" x2="48" y2="48" gradientUnits="userSpaceOnUse">
<stop stop-color="#F4A5E2"/>
<stop offset="1" stop-color="#ED6CC1"/>
</linearGradient>
<clipPath id="clip0">
<rect width="29.288" height="29.2881" fill="white" transform="translate(9.7627 8.94916)"/>
</clipPath>
</defs>
</svg>
