<svg width="166" height="46" viewBox="0 0 166 46" fill="none" xmlns="http://www.w3.org/2000/svg">
<rect width="166" height="46" rx="23" fill="white" fill-opacity="0.1"/>
<rect x="0.5" y="0.5" width="165" height="45" rx="22.5" stroke="white" stroke-opacity="0.3"/>
<g clip-path="url(#clip0)">
<path d="M33.6832 7C32.2343 7.10325 30.5409 8.05874 29.5541 9.30299C28.6539 10.4317 27.9133 12.1082 28.2021 13.7375C29.7851 13.7882 31.4208 12.81 32.3685 11.5447C33.2552 10.367 33.9261 8.70099 33.6832 7Z" fill="white"/>
<path d="M39.4081 16.3939C38.017 14.5967 36.062 13.5537 34.2157 13.5537C31.7783 13.5537 30.7473 14.756 29.0539 14.756C27.3078 14.756 25.9813 13.5572 23.8734 13.5572C21.8029 13.5572 19.5982 14.861 18.2003 17.0904C16.2352 20.2299 16.5715 26.1326 19.7562 31.1604C20.8959 32.9594 22.4178 34.9823 24.4084 34.9998C26.18 35.0173 26.6794 33.8291 29.0794 33.8168C31.4794 33.8028 31.9346 35.0156 33.7027 34.9963C35.6951 34.9806 37.3002 32.7389 38.4399 30.9399C39.2569 29.6501 39.5609 29.0009 40.1945 27.5449C35.5864 25.7371 34.8475 18.9857 39.4081 16.3939Z" fill="white"/>
</g>
<path d="M60.6797 11.3623C60.6797 12.5407 60.359 13.4424 59.7178 14.0674C59.0798 14.6891 58.1602 15 56.959 15H54.9814V7.86133H57.1689C58.279 7.86133 59.1416 8.16895 59.7568 8.78418C60.3721 9.39941 60.6797 10.2588 60.6797 11.3623ZM59.8008 11.3916C59.8008 10.4606 59.5664 9.75911 59.0977 9.28711C58.6322 8.8151 57.9388 8.5791 57.0176 8.5791H55.8115V14.2822H56.8223C57.8118 14.2822 58.5557 14.0397 59.0537 13.5547C59.5518 13.0664 59.8008 12.3454 59.8008 11.3916ZM66.7734 12.3193C66.7734 13.1917 66.5537 13.8737 66.1143 14.3652C65.6748 14.8535 65.0677 15.0977 64.293 15.0977C63.8145 15.0977 63.3896 14.9854 63.0186 14.7607C62.6475 14.5361 62.361 14.2139 62.1592 13.7939C61.9574 13.374 61.8564 12.8825 61.8564 12.3193C61.8564 11.4469 62.0745 10.7682 62.5107 10.2832C62.9469 9.79492 63.5524 9.55078 64.3271 9.55078C65.0758 9.55078 65.6699 9.7998 66.1094 10.2979C66.5521 10.7959 66.7734 11.4697 66.7734 12.3193ZM62.6963 12.3193C62.6963 13.0029 62.833 13.5238 63.1064 13.8818C63.3799 14.2399 63.7819 14.4189 64.3125 14.4189C64.8431 14.4189 65.2451 14.2415 65.5186 13.8867C65.7952 13.5286 65.9336 13.0062 65.9336 12.3193C65.9336 11.639 65.7952 11.123 65.5186 10.7715C65.2451 10.4167 64.8398 10.2393 64.3027 10.2393C63.7721 10.2393 63.3717 10.4134 63.1016 10.7617C62.8314 11.11 62.6963 11.6292 62.6963 12.3193ZM72.5693 15L71.5879 11.8604C71.526 11.6683 71.4105 11.2321 71.2412 10.5518H71.2021C71.0719 11.1214 70.958 11.5609 70.8604 11.8701L69.8496 15H68.9121L67.4521 9.64844H68.3018C68.6468 10.9928 68.9089 12.0166 69.0879 12.7197C69.2702 13.4229 69.3743 13.8965 69.4004 14.1406H69.4395C69.4753 13.9551 69.5322 13.7158 69.6104 13.4229C69.6917 13.1266 69.7617 12.8923 69.8203 12.7197L70.8018 9.64844H71.6807L72.6377 12.7197C72.82 13.2796 72.9437 13.75 73.0088 14.1309H73.0479C73.0609 14.0137 73.0951 13.833 73.1504 13.5889C73.209 13.3447 73.5492 12.0312 74.1709 9.64844H75.0107L73.5312 15H72.5693ZM79.6445 15V11.5381C79.6445 11.1019 79.5452 10.7764 79.3467 10.5615C79.1481 10.3467 78.8372 10.2393 78.4141 10.2393C77.8542 10.2393 77.444 10.3906 77.1836 10.6934C76.9232 10.9961 76.793 11.4958 76.793 12.1924V15H75.9824V9.64844H76.6416L76.7734 10.3809H76.8125C76.9785 10.1172 77.2113 9.91374 77.5107 9.77051C77.8102 9.62402 78.1439 9.55078 78.5117 9.55078C79.1562 9.55078 79.6413 9.70703 79.9668 10.0195C80.2923 10.3288 80.4551 10.8252 80.4551 11.5088V15H79.6445ZM82.9355 15H82.125V7.40234H82.9355V15ZM89.2734 12.3193C89.2734 13.1917 89.0537 13.8737 88.6143 14.3652C88.1748 14.8535 87.5677 15.0977 86.793 15.0977C86.3145 15.0977 85.8896 14.9854 85.5186 14.7607C85.1475 14.5361 84.861 14.2139 84.6592 13.7939C84.4574 13.374 84.3564 12.8825 84.3564 12.3193C84.3564 11.4469 84.5745 10.7682 85.0107 10.2832C85.4469 9.79492 86.0524 9.55078 86.8271 9.55078C87.5758 9.55078 88.1699 9.7998 88.6094 10.2979C89.0521 10.7959 89.2734 11.4697 89.2734 12.3193ZM85.1963 12.3193C85.1963 13.0029 85.333 13.5238 85.6064 13.8818C85.8799 14.2399 86.2819 14.4189 86.8125 14.4189C87.3431 14.4189 87.7451 14.2415 88.0186 13.8867C88.2952 13.5286 88.4336 13.0062 88.4336 12.3193C88.4336 11.639 88.2952 11.123 88.0186 10.7715C87.7451 10.4167 87.3398 10.2393 86.8027 10.2393C86.2721 10.2393 85.8717 10.4134 85.6016 10.7617C85.3314 11.11 85.1963 11.6292 85.1963 12.3193ZM93.9902 15L93.8291 14.2383H93.79C93.5231 14.5736 93.2562 14.8014 92.9893 14.9219C92.7256 15.0391 92.3952 15.0977 91.998 15.0977C91.4674 15.0977 91.0508 14.9609 90.748 14.6875C90.4486 14.4141 90.2988 14.0251 90.2988 13.5205C90.2988 12.4398 91.1631 11.8734 92.8916 11.8213L93.7998 11.792V11.46C93.7998 11.04 93.7087 10.7308 93.5264 10.5322C93.3473 10.3304 93.0592 10.2295 92.6621 10.2295C92.2161 10.2295 91.7116 10.3662 91.1484 10.6396L90.8994 10.0195C91.1631 9.8763 91.4512 9.764 91.7637 9.68262C92.0794 9.60124 92.3952 9.56055 92.7109 9.56055C93.349 9.56055 93.821 9.70215 94.127 9.98535C94.4362 10.2686 94.5908 10.7227 94.5908 11.3477V15H93.9902ZM92.1592 14.4287C92.6637 14.4287 93.0592 14.2904 93.3457 14.0137C93.6354 13.737 93.7803 13.3496 93.7803 12.8516V12.3682L92.9697 12.4023C92.3252 12.4251 91.8597 12.526 91.5732 12.7051C91.29 12.8809 91.1484 13.1559 91.1484 13.5303C91.1484 13.8232 91.2363 14.0462 91.4121 14.1992C91.5911 14.3522 91.8402 14.4287 92.1592 14.4287ZM99.9082 14.2822H99.8643C99.4899 14.8258 98.93 15.0977 98.1846 15.0977C97.4847 15.0977 96.9395 14.8584 96.5488 14.3799C96.1615 13.9014 95.9678 13.221 95.9678 12.3389C95.9678 11.4567 96.1631 10.7715 96.5537 10.2832C96.9443 9.79492 97.488 9.55078 98.1846 9.55078C98.9105 9.55078 99.4671 9.81445 99.8545 10.3418H99.918L99.8838 9.95605L99.8643 9.58008V7.40234H100.675V15H100.016L99.9082 14.2822ZM98.2871 14.4189C98.8405 14.4189 99.2409 14.2692 99.4883 13.9697C99.7389 13.667 99.8643 13.1803 99.8643 12.5098V12.3389C99.8643 11.5804 99.7373 11.04 99.4834 10.7178C99.2327 10.3923 98.8307 10.2295 98.2773 10.2295C97.8021 10.2295 97.4375 10.415 97.1836 10.7861C96.9329 11.154 96.8076 11.6748 96.8076 12.3486C96.8076 13.0322 96.9329 13.5482 97.1836 13.8965C97.4342 14.2448 97.8021 14.4189 98.2871 14.4189ZM109.615 12.3193C109.615 13.1917 109.396 13.8737 108.956 14.3652C108.517 14.8535 107.91 15.0977 107.135 15.0977C106.656 15.0977 106.231 14.9854 105.86 14.7607C105.489 14.5361 105.203 14.2139 105.001 13.7939C104.799 13.374 104.698 12.8825 104.698 12.3193C104.698 11.4469 104.916 10.7682 105.353 10.2832C105.789 9.79492 106.394 9.55078 107.169 9.55078C107.918 9.55078 108.512 9.7998 108.951 10.2979C109.394 10.7959 109.615 11.4697 109.615 12.3193ZM105.538 12.3193C105.538 13.0029 105.675 13.5238 105.948 13.8818C106.222 14.2399 106.624 14.4189 107.154 14.4189C107.685 14.4189 108.087 14.2415 108.36 13.8867C108.637 13.5286 108.775 13.0062 108.775 12.3193C108.775 11.639 108.637 11.123 108.36 10.7715C108.087 10.4167 107.682 10.2393 107.145 10.2393C106.614 10.2393 106.214 10.4134 105.943 10.7617C105.673 11.11 105.538 11.6292 105.538 12.3193ZM114.703 15V11.5381C114.703 11.1019 114.604 10.7764 114.405 10.5615C114.207 10.3467 113.896 10.2393 113.473 10.2393C112.913 10.2393 112.503 10.3906 112.242 10.6934C111.982 10.9961 111.852 11.4958 111.852 12.1924V15H111.041V9.64844H111.7L111.832 10.3809H111.871C112.037 10.1172 112.27 9.91374 112.569 9.77051C112.869 9.62402 113.202 9.55078 113.57 9.55078C114.215 9.55078 114.7 9.70703 115.025 10.0195C115.351 10.3288 115.514 10.8252 115.514 11.5088V15H114.703ZM121.51 14.4287C121.653 14.4287 121.791 14.4189 121.925 14.3994C122.058 14.3766 122.164 14.3538 122.242 14.3311V14.9512C122.154 14.9935 122.024 15.0277 121.852 15.0537C121.682 15.083 121.529 15.0977 121.393 15.0977C120.357 15.0977 119.84 14.5524 119.84 13.4619V10.2783H119.073V9.8877L119.84 9.55078L120.182 8.4082H120.65V9.64844H122.203V10.2783H120.65V13.4277C120.65 13.75 120.727 13.9974 120.88 14.1699C121.033 14.3424 121.243 14.4287 121.51 14.4287ZM126.979 15V11.5381C126.979 11.1019 126.879 10.7764 126.681 10.5615C126.482 10.3467 126.171 10.2393 125.748 10.2393C125.185 10.2393 124.773 10.3923 124.513 10.6982C124.256 11.0042 124.127 11.5055 124.127 12.2021V15H123.316V7.40234H124.127V9.70215C124.127 9.97884 124.114 10.2083 124.088 10.3906H124.137C124.296 10.1335 124.522 9.93164 124.815 9.78516C125.112 9.63542 125.449 9.56055 125.826 9.56055C126.48 9.56055 126.97 9.7168 127.296 10.0293C127.625 10.3385 127.789 10.8317 127.789 11.5088V15H126.979ZM131.72 15.0977C130.929 15.0977 130.304 14.8568 129.845 14.375C129.389 13.8932 129.161 13.2243 129.161 12.3682C129.161 11.5055 129.373 10.8203 129.796 10.3125C130.222 9.80469 130.794 9.55078 131.51 9.55078C132.18 9.55078 132.711 9.77214 133.102 10.2148C133.492 10.6543 133.688 11.2354 133.688 11.958V12.4707H130.001C130.017 13.099 130.175 13.5758 130.475 13.9014C130.777 14.2269 131.202 14.3896 131.749 14.3896C132.325 14.3896 132.895 14.2692 133.458 14.0283V14.751C133.172 14.8747 132.9 14.9626 132.643 15.0146C132.389 15.07 132.081 15.0977 131.72 15.0977ZM131.5 10.2295C131.07 10.2295 130.727 10.3695 130.47 10.6494C130.216 10.9294 130.066 11.3167 130.021 11.8115H132.818C132.818 11.3005 132.704 10.9098 132.477 10.6396C132.249 10.3662 131.923 10.2295 131.5 10.2295Z" fill="white"/>
<path d="M62.5938 36L61.4531 32.8281H57.0859L55.9688 36H54L58.2734 24.5312H60.3047L64.5781 36H62.5938ZM60.9609 31.2188L59.8906 28.1094C59.8125 27.901 59.7031 27.5729 59.5625 27.125C59.4271 26.6771 59.3333 26.349 59.2812 26.1406C59.1406 26.7812 58.9349 27.4818 58.6641 28.2422L57.6328 31.2188H60.9609ZM70.2734 36.1562C69.1797 36.1562 68.3307 35.763 67.7266 34.9766H67.6172C67.6901 35.7057 67.7266 36.1484 67.7266 36.3047V39.8438H65.8906V27.3594H67.375C67.4167 27.5208 67.5026 27.9062 67.6328 28.5156H67.7266C68.2995 27.6406 69.1589 27.2031 70.3047 27.2031C71.3828 27.2031 72.2214 27.5938 72.8203 28.375C73.4245 29.1562 73.7266 30.2526 73.7266 31.6641C73.7266 33.0755 73.4193 34.1771 72.8047 34.9688C72.1953 35.7604 71.3516 36.1562 70.2734 36.1562ZM69.8281 28.7031C69.099 28.7031 68.5651 28.9167 68.2266 29.3438C67.8932 29.7708 67.7266 30.4531 67.7266 31.3906V31.6641C67.7266 32.7161 67.8932 33.4792 68.2266 33.9531C68.5599 34.4219 69.1042 34.6562 69.8594 34.6562C70.4948 34.6562 70.9844 34.3958 71.3281 33.875C71.6719 33.3542 71.8438 32.612 71.8438 31.6484C71.8438 30.6797 71.6719 29.9479 71.3281 29.4531C70.9896 28.9531 70.4896 28.7031 69.8281 28.7031ZM80.2422 36.1562C79.1484 36.1562 78.2995 35.763 77.6953 34.9766H77.5859C77.6589 35.7057 77.6953 36.1484 77.6953 36.3047V39.8438H75.8594V27.3594H77.3438C77.3854 27.5208 77.4714 27.9062 77.6016 28.5156H77.6953C78.2682 27.6406 79.1276 27.2031 80.2734 27.2031C81.3516 27.2031 82.1901 27.5938 82.7891 28.375C83.3932 29.1562 83.6953 30.2526 83.6953 31.6641C83.6953 33.0755 83.388 34.1771 82.7734 34.9688C82.1641 35.7604 81.3203 36.1562 80.2422 36.1562ZM79.7969 28.7031C79.0677 28.7031 78.5339 28.9167 78.1953 29.3438C77.862 29.7708 77.6953 30.4531 77.6953 31.3906V31.6641C77.6953 32.7161 77.862 33.4792 78.1953 33.9531C78.5286 34.4219 79.0729 34.6562 79.8281 34.6562C80.4635 34.6562 80.9531 34.3958 81.2969 33.875C81.6406 33.3542 81.8125 32.612 81.8125 31.6484C81.8125 30.6797 81.6406 29.9479 81.2969 29.4531C80.9583 28.9531 80.4583 28.7031 79.7969 28.7031ZM96.7656 32.8984C96.7656 33.9141 96.3984 34.7109 95.6641 35.2891C94.9297 35.8672 93.9167 36.1562 92.625 36.1562C91.3333 36.1562 90.276 35.9557 89.4531 35.5547V33.7891C89.974 34.0339 90.526 34.2266 91.1094 34.3672C91.6979 34.5078 92.2448 34.5781 92.75 34.5781C93.4896 34.5781 94.0339 34.4375 94.3828 34.1562C94.737 33.875 94.9141 33.4974 94.9141 33.0234C94.9141 32.5964 94.7526 32.2344 94.4297 31.9375C94.1068 31.6406 93.4401 31.2891 92.4297 30.8828C91.388 30.4609 90.6536 29.9792 90.2266 29.4375C89.7995 28.8958 89.5859 28.2448 89.5859 27.4844C89.5859 26.5312 89.9245 25.7812 90.6016 25.2344C91.2786 24.6875 92.1875 24.4141 93.3281 24.4141C94.4219 24.4141 95.5104 24.6536 96.5938 25.1328L96 26.6562C94.9844 26.2292 94.0781 26.0156 93.2812 26.0156C92.6771 26.0156 92.2188 26.1484 91.9062 26.4141C91.5938 26.6745 91.4375 27.0208 91.4375 27.4531C91.4375 27.75 91.5 28.0052 91.625 28.2188C91.75 28.4271 91.9557 28.625 92.2422 28.8125C92.5286 29 93.0443 29.2474 93.7891 29.5547C94.6276 29.9036 95.2422 30.2292 95.6328 30.5312C96.0234 30.8333 96.3099 31.1745 96.4922 31.5547C96.6745 31.9349 96.7656 32.3828 96.7656 32.8984ZM102 34.6719C102.448 34.6719 102.896 34.6016 103.344 34.4609V35.8438C103.141 35.9323 102.878 36.0052 102.555 36.0625C102.237 36.125 101.906 36.1562 101.562 36.1562C99.8229 36.1562 98.9531 35.2396 98.9531 33.4062V28.75H97.7734V27.9375L99.0391 27.2656L99.6641 25.4375H100.797V27.3594H103.258V28.75H100.797V33.375C100.797 33.8177 100.906 34.1458 101.125 34.3594C101.349 34.5677 101.641 34.6719 102 34.6719ZM112.742 31.6641C112.742 33.0755 112.38 34.1771 111.656 34.9688C110.932 35.7604 109.924 36.1562 108.633 36.1562C107.826 36.1562 107.112 35.974 106.492 35.6094C105.872 35.2448 105.396 34.7214 105.062 34.0391C104.729 33.3568 104.562 32.5651 104.562 31.6641C104.562 30.263 104.922 29.1693 105.641 28.3828C106.359 27.5964 107.372 27.2031 108.68 27.2031C109.93 27.2031 110.919 27.6068 111.648 28.4141C112.378 29.2161 112.742 30.2995 112.742 31.6641ZM106.453 31.6641C106.453 33.6589 107.19 34.6562 108.664 34.6562C110.122 34.6562 110.852 33.6589 110.852 31.6641C110.852 29.6901 110.117 28.7031 108.648 28.7031C107.878 28.7031 107.318 28.9583 106.969 29.4688C106.625 29.9792 106.453 30.7109 106.453 31.6641ZM119.242 27.2031C119.612 27.2031 119.917 27.2292 120.156 27.2812L119.977 28.9922C119.716 28.9297 119.445 28.8984 119.164 28.8984C118.43 28.8984 117.833 29.138 117.375 29.6172C116.922 30.0964 116.695 30.7188 116.695 31.4844V36H114.859V27.3594H116.297L116.539 28.8828H116.633C116.919 28.3672 117.292 27.9583 117.75 27.6562C118.214 27.3542 118.711 27.2031 119.242 27.2031ZM125.539 36.1562C124.195 36.1562 123.143 35.7656 122.383 34.9844C121.628 34.1979 121.25 33.1172 121.25 31.7422C121.25 30.3307 121.602 29.2214 122.305 28.4141C123.008 27.6068 123.974 27.2031 125.203 27.2031C126.344 27.2031 127.245 27.5495 127.906 28.2422C128.568 28.9349 128.898 29.888 128.898 31.1016V32.0938H123.141C123.167 32.9323 123.393 33.5781 123.82 34.0312C124.247 34.4792 124.849 34.7031 125.625 34.7031C126.135 34.7031 126.609 34.6562 127.047 34.5625C127.49 34.4635 127.964 34.3021 128.469 34.0781V35.5703C128.021 35.7839 127.568 35.9349 127.109 36.0234C126.651 36.112 126.128 36.1562 125.539 36.1562ZM125.203 28.5938C124.62 28.5938 124.151 28.7786 123.797 29.1484C123.448 29.5182 123.24 30.0573 123.172 30.7656H127.094C127.083 30.0521 126.911 29.513 126.578 29.1484C126.245 28.7786 125.786 28.5938 125.203 28.5938Z" fill="white"/>
<defs>
<clipPath id="clip0">
<rect width="27.1765" height="28" fill="white" transform="translate(15 7)"/>
</clipPath>
</defs>
</svg>
