<svg width="166" height="46" viewBox="0 0 166 46" fill="none" xmlns="http://www.w3.org/2000/svg">
<rect width="166" height="46" rx="23" fill="white" fill-opacity="0.1"/>
<rect x="0.5" y="0.5" width="165" height="45" rx="22.5" stroke="white" stroke-opacity="0.3"/>
<g clip-path="url(#clip0)">
<path d="M37.2959 18.6045C34.1389 16.7852 29.0717 13.8638 21.2122 9.32973C20.6823 8.96917 20.0727 8.92192 19.5459 9.10562L33.0307 22.999L37.2959 18.6045Z" fill="#32BBFF"/>
<path d="M19.5458 9.10571C19.4471 9.14017 19.351 9.18173 19.2591 9.23193C18.6774 9.55612 18.25 10.1799 18.25 10.9689V35.0293C18.25 35.8183 18.6774 36.4421 19.2591 36.7662C19.3509 36.8164 19.4469 36.8581 19.5455 36.8928L33.0306 22.9991L19.5458 9.10571Z" fill="#32BBFF"/>
<path d="M33.031 22.999L19.5459 36.8927C20.0728 37.0778 20.6825 37.0341 21.2125 36.6683C28.8346 32.2709 33.8446 29.3841 37.0382 27.5494C37.1271 27.4979 37.2142 27.4476 37.3003 27.3978L33.031 22.999Z" fill="#32BBFF"/>
<path d="M18.25 22.999V35.0292C18.25 35.8182 18.6774 36.442 19.2591 36.7661C19.3509 36.8163 19.4469 36.858 19.5455 36.8927L33.0306 22.999H18.25Z" fill="#2C9FD9"/>
<path d="M21.2118 9.32965C20.5825 8.90156 19.8405 8.91375 19.2588 9.23182L32.8256 23.2097L37.2955 18.6044C34.1385 16.7851 29.0713 13.8637 21.2118 9.32965Z" fill="#29CC5E"/>
<path d="M32.8257 22.7881L19.2588 36.766C19.8405 37.084 20.5825 37.1023 21.2118 36.6681C28.8338 32.2707 33.8439 29.384 37.0374 27.5492C37.1263 27.4977 37.2135 27.4474 37.2995 27.3976L32.8257 22.7881Z" fill="#D93F21"/>
<path d="M42.9262 22.9989C42.9262 22.3323 42.5998 21.6595 41.9527 21.2864C41.9527 21.2864 40.7425 20.5908 37.0332 18.4531L32.6211 22.9989L37.0375 27.5492C40.7061 25.4269 41.9526 24.7114 41.9526 24.7114C42.5998 24.3383 42.9262 23.6656 42.9262 22.9989Z" fill="#FFD500"/>
<path d="M41.9527 24.7115C42.5998 24.3384 42.9262 23.6657 42.9262 22.999H32.6211L37.0375 27.5493C40.7062 25.4271 41.9527 24.7115 41.9527 24.7115Z" fill="#FFAA00"/>
</g>
<path d="M58.1211 11.2598H60.5479V14.7314C60.1702 14.8519 59.7861 14.943 59.3955 15.0049C59.0049 15.0667 58.5524 15.0977 58.0381 15.0977C56.9574 15.0977 56.1159 14.777 55.5137 14.1357C54.9115 13.4912 54.6104 12.5895 54.6104 11.4307C54.6104 10.6885 54.7585 10.0391 55.0547 9.48242C55.3542 8.92253 55.7839 8.49609 56.3438 8.20312C56.9036 7.9069 57.5596 7.75879 58.3115 7.75879C59.0732 7.75879 59.7829 7.89876 60.4404 8.17871L60.1182 8.91113C59.4736 8.6377 58.8535 8.50098 58.2578 8.50098C57.3887 8.50098 56.71 8.75977 56.2217 9.27734C55.7334 9.79492 55.4893 10.5127 55.4893 11.4307C55.4893 12.3942 55.7236 13.125 56.1924 13.623C56.6644 14.1211 57.3561 14.3701 58.2676 14.3701C58.7624 14.3701 59.2458 14.3132 59.7178 14.1992V12.002H58.1211V11.2598ZM66.2461 15H62.2666V7.86133H66.2461V8.59863H63.0967V10.8984H66.0557V11.6309H63.0967V14.2578H66.2461V15ZM70.0303 15H69.2002V8.59863H66.9395V7.86133H72.291V8.59863H70.0303V15ZM75.9678 15V7.86133H76.7979V15H75.9678ZM80.958 15H80.1279V8.59863H77.8672V7.86133H83.2188V8.59863H80.958V15ZM93.0918 11.4209C93.0918 12.5635 92.8021 13.4619 92.2227 14.1162C91.6465 14.7705 90.8441 15.0977 89.8154 15.0977C88.764 15.0977 87.9518 14.777 87.3789 14.1357C86.8092 13.4912 86.5244 12.583 86.5244 11.4111C86.5244 10.249 86.8109 9.34896 87.3838 8.71094C87.9567 8.06966 88.7705 7.74902 89.8252 7.74902C90.8506 7.74902 91.6514 8.07454 92.2275 8.72559C92.8037 9.37663 93.0918 10.2751 93.0918 11.4209ZM87.4033 11.4209C87.4033 12.3877 87.6084 13.1217 88.0186 13.623C88.432 14.1211 89.0309 14.3701 89.8154 14.3701C90.6064 14.3701 91.2038 14.1211 91.6074 13.623C92.0111 13.125 92.2129 12.391 92.2129 11.4209C92.2129 10.4606 92.0111 9.73307 91.6074 9.23828C91.207 8.74023 90.613 8.49121 89.8252 8.49121C89.0342 8.49121 88.432 8.74186 88.0186 9.24316C87.6084 9.74121 87.4033 10.4671 87.4033 11.4209ZM100.265 15H99.3174L95.416 9.00879H95.377C95.429 9.71191 95.4551 10.3564 95.4551 10.9424V15H94.6885V7.86133H95.626L99.5176 13.8281H99.5566C99.5501 13.7402 99.5355 13.4587 99.5127 12.9834C99.4899 12.5049 99.4818 12.1631 99.4883 11.958V7.86133H100.265V15Z" fill="white"/>
<path d="M60.1797 29.8047H64.3828V35.5391C63.6953 35.763 63.0339 35.9219 62.3984 36.0156C61.7682 36.1094 61.0859 36.1562 60.3516 36.1562C58.6224 36.1562 57.2891 35.6458 56.3516 34.625C55.4141 33.599 54.9453 32.1536 54.9453 30.2891C54.9453 28.4505 55.474 27.013 56.5312 25.9766C57.5885 24.9349 59.0443 24.4141 60.8984 24.4141C62.0911 24.4141 63.2214 24.6432 64.2891 25.1016L63.6328 26.6562C62.7057 26.2292 61.7786 26.0156 60.8516 26.0156C59.6328 26.0156 58.6693 26.3984 57.9609 27.1641C57.2526 27.9297 56.8984 28.9766 56.8984 30.3047C56.8984 31.7005 57.2161 32.763 57.8516 33.4922C58.4922 34.2161 59.4115 34.5781 60.6094 34.5781C61.2135 34.5781 61.8594 34.5026 62.5469 34.3516V31.4062H60.1797V29.8047ZM74.6016 31.6641C74.6016 33.0755 74.2396 34.1771 73.5156 34.9688C72.7917 35.7604 71.7839 36.1562 70.4922 36.1562C69.6849 36.1562 68.9714 35.974 68.3516 35.6094C67.7318 35.2448 67.2552 34.7214 66.9219 34.0391C66.5885 33.3568 66.4219 32.5651 66.4219 31.6641C66.4219 30.263 66.7812 29.1693 67.5 28.3828C68.2188 27.5964 69.2318 27.2031 70.5391 27.2031C71.7891 27.2031 72.7786 27.6068 73.5078 28.4141C74.237 29.2161 74.6016 30.2995 74.6016 31.6641ZM68.3125 31.6641C68.3125 33.6589 69.0495 34.6562 70.5234 34.6562C71.9818 34.6562 72.7109 33.6589 72.7109 31.6641C72.7109 29.6901 71.9766 28.7031 70.5078 28.7031C69.737 28.7031 69.1771 28.9583 68.8281 29.4688C68.4844 29.9792 68.3125 30.7109 68.3125 31.6641ZM84.3828 31.6641C84.3828 33.0755 84.0208 34.1771 83.2969 34.9688C82.5729 35.7604 81.5651 36.1562 80.2734 36.1562C79.4661 36.1562 78.7526 35.974 78.1328 35.6094C77.513 35.2448 77.0365 34.7214 76.7031 34.0391C76.3698 33.3568 76.2031 32.5651 76.2031 31.6641C76.2031 30.263 76.5625 29.1693 77.2812 28.3828C78 27.5964 79.013 27.2031 80.3203 27.2031C81.5703 27.2031 82.5599 27.6068 83.2891 28.4141C84.0182 29.2161 84.3828 30.2995 84.3828 31.6641ZM78.0938 31.6641C78.0938 33.6589 78.8307 34.6562 80.3047 34.6562C81.763 34.6562 82.4922 33.6589 82.4922 31.6641C82.4922 29.6901 81.7578 28.7031 80.2891 28.7031C79.5182 28.7031 78.9583 28.9583 78.6094 29.4688C78.2656 29.9792 78.0938 30.7109 78.0938 31.6641ZM93.7969 27.3594V28.3672L92.3203 28.6406C92.4557 28.8229 92.5677 29.0469 92.6562 29.3125C92.7448 29.5781 92.7891 29.8594 92.7891 30.1562C92.7891 31.0469 92.4818 31.7474 91.8672 32.2578C91.2526 32.7682 90.4062 33.0234 89.3281 33.0234C89.0521 33.0234 88.8021 33.0026 88.5781 32.9609C88.1823 33.2057 87.9844 33.4922 87.9844 33.8203C87.9844 34.0182 88.0755 34.1667 88.2578 34.2656C88.4453 34.3646 88.7865 34.4141 89.2812 34.4141H90.7891C91.7422 34.4141 92.4661 34.6172 92.9609 35.0234C93.4557 35.4297 93.7031 36.0156 93.7031 36.7812C93.7031 37.7604 93.2995 38.5156 92.4922 39.0469C91.6849 39.5781 90.5182 39.8438 88.9922 39.8438C87.8151 39.8438 86.9167 39.6354 86.2969 39.2188C85.6771 38.8021 85.3672 38.2083 85.3672 37.4375C85.3672 36.9062 85.5339 36.4583 85.8672 36.0938C86.2057 35.7344 86.6771 35.4844 87.2812 35.3438C87.0365 35.2396 86.8333 35.0729 86.6719 34.8438C86.5156 34.6094 86.4375 34.3646 86.4375 34.1094C86.4375 33.7865 86.5286 33.513 86.7109 33.2891C86.8932 33.0651 87.1641 32.8438 87.5234 32.625C87.0755 32.4323 86.7109 32.1198 86.4297 31.6875C86.1536 31.25 86.0156 30.7396 86.0156 30.1562C86.0156 29.2188 86.3099 28.4922 86.8984 27.9766C87.4922 27.4609 88.3359 27.2031 89.4297 27.2031C89.6745 27.2031 89.9297 27.2214 90.1953 27.2578C90.4661 27.2891 90.6693 27.3229 90.8047 27.3594H93.7969ZM87.0078 37.3438C87.0078 37.7396 87.1849 38.0443 87.5391 38.2578C87.8984 38.4714 88.401 38.5781 89.0469 38.5781C90.0469 38.5781 90.7917 38.4349 91.2812 38.1484C91.7708 37.862 92.0156 37.4818 92.0156 37.0078C92.0156 36.6328 91.8802 36.3646 91.6094 36.2031C91.3438 36.0469 90.8464 35.9688 90.1172 35.9688H88.7266C88.2005 35.9688 87.7812 36.0911 87.4688 36.3359C87.1615 36.5859 87.0078 36.9219 87.0078 37.3438ZM87.7969 30.1562C87.7969 30.6979 87.9349 31.1146 88.2109 31.4062C88.4922 31.6979 88.8932 31.8438 89.4141 31.8438C90.4766 31.8438 91.0078 31.276 91.0078 30.1406C91.0078 29.5781 90.875 29.1458 90.6094 28.8438C90.349 28.5365 89.9505 28.3828 89.4141 28.3828C88.8828 28.3828 88.4792 28.5339 88.2031 28.8359C87.9323 29.138 87.7969 29.5781 87.7969 30.1562ZM97.2422 36H95.4062V23.8438H97.2422V36ZM103.648 36.1562C102.305 36.1562 101.253 35.7656 100.492 34.9844C99.737 34.1979 99.3594 33.1172 99.3594 31.7422C99.3594 30.3307 99.7109 29.2214 100.414 28.4141C101.117 27.6068 102.083 27.2031 103.312 27.2031C104.453 27.2031 105.354 27.5495 106.016 28.2422C106.677 28.9349 107.008 29.888 107.008 31.1016V32.0938H101.25C101.276 32.9323 101.503 33.5781 101.93 34.0312C102.357 34.4792 102.958 34.7031 103.734 34.7031C104.245 34.7031 104.719 34.6562 105.156 34.5625C105.599 34.4635 106.073 34.3021 106.578 34.0781V35.5703C106.13 35.7839 105.677 35.9349 105.219 36.0234C104.76 36.112 104.237 36.1562 103.648 36.1562ZM103.312 28.5938C102.729 28.5938 102.26 28.7786 101.906 29.1484C101.557 29.5182 101.349 30.0573 101.281 30.7656H105.203C105.193 30.0521 105.021 29.513 104.688 29.1484C104.354 28.7786 103.896 28.5938 103.312 28.5938ZM121.008 28.0312C121.008 29.224 120.617 30.138 119.836 30.7734C119.055 31.4089 117.943 31.7266 116.5 31.7266H115.312V36H113.445V24.5781H116.734C118.161 24.5781 119.229 24.8698 119.938 25.4531C120.651 26.0365 121.008 26.8958 121.008 28.0312ZM115.312 30.1562H116.305C117.263 30.1562 117.966 29.9896 118.414 29.6562C118.862 29.3229 119.086 28.8021 119.086 28.0938C119.086 27.4375 118.885 26.9479 118.484 26.625C118.083 26.3021 117.458 26.1406 116.609 26.1406H115.312V30.1562ZM124.93 36H123.094V23.8438H124.93V36ZM132.969 36L132.602 34.7969H132.539C132.122 35.3229 131.703 35.6823 131.281 35.875C130.859 36.0625 130.318 36.1562 129.656 36.1562C128.807 36.1562 128.143 35.9271 127.664 35.4688C127.19 35.0104 126.953 34.362 126.953 33.5234C126.953 32.6328 127.284 31.9609 127.945 31.5078C128.607 31.0547 129.615 30.8073 130.969 30.7656L132.461 30.7188V30.2578C132.461 29.7057 132.331 29.2943 132.07 29.0234C131.815 28.7474 131.417 28.6094 130.875 28.6094C130.432 28.6094 130.008 28.6745 129.602 28.8047C129.195 28.9349 128.805 29.0885 128.43 29.2656L127.836 27.9531C128.305 27.7083 128.818 27.5234 129.375 27.3984C129.932 27.2682 130.458 27.2031 130.953 27.2031C132.052 27.2031 132.88 27.4427 133.438 27.9219C134 28.401 134.281 29.1536 134.281 30.1797V36H132.969ZM130.234 34.75C130.901 34.75 131.435 34.5651 131.836 34.1953C132.242 33.8203 132.445 33.2969 132.445 32.625V31.875L131.336 31.9219C130.471 31.9531 129.841 32.099 129.445 32.3594C129.055 32.6146 128.859 33.0078 128.859 33.5391C128.859 33.9245 128.974 34.224 129.203 34.4375C129.432 34.6458 129.776 34.75 130.234 34.75ZM135.531 27.3594H137.531L139.289 32.2578C139.555 32.9557 139.732 33.612 139.82 34.2266H139.883C139.93 33.9401 140.016 33.5938 140.141 33.1875C140.266 32.776 140.927 30.8333 142.125 27.3594H144.109L140.414 37.1484C139.742 38.9453 138.622 39.8438 137.055 39.8438C136.648 39.8438 136.253 39.7995 135.867 39.7109V38.2578C136.143 38.3203 136.458 38.3516 136.812 38.3516C137.698 38.3516 138.32 37.8385 138.68 36.8125L139 36L135.531 27.3594Z" fill="white"/>
<defs>
<clipPath id="clip0">
<rect width="27.1765" height="28" fill="white" transform="translate(17 9)"/>
</clipPath>
</defs>
</svg>
